<svg width="182" height="159" viewBox="0 0 182 159" fill="none" xmlns="http://www.w3.org/2000/svg">
<path d="M168.827 121.255C170.773 120.251 173.061 120.121 175.219 120.476C176.382 120.671 177.589 121.017 178.38 121.886C179.172 122.756 179.319 124.292 178.411 125.041C177.828 125.439 177.123 125.618 176.421 125.547C174.73 125.547 172.853 125.231 171.504 126.248C170.734 126.828 170.206 127.793 169.298 128.078C168.351 128.303 167.37 127.868 166.902 127.014C166.464 126.166 166.368 125.183 166.634 124.266C166.855 122.975 167.666 121.861 168.827 121.255Z" fill="#EBEBEB"/>
<path d="M164.355 112.64C165.544 114.34 167.854 113.778 168.926 112.739C169.999 111.701 170.449 110.199 170.864 108.767C171.806 105.492 172.754 102.052 172.053 98.7159C171.881 97.7035 171.432 96.7585 170.756 95.9857C170.065 95.207 169.011 94.8571 167.992 95.0684C166.829 95.3756 166.102 96.5179 165.579 97.6039C164.043 100.812 163.241 104.323 163.23 107.88C163.23 109.537 163.421 111.272 164.355 112.64Z" fill="#EBEBEB"/>
<path d="M161.09 115.094C162.387 113.558 162.625 111.321 162.05 109.4C161.475 107.479 160.177 105.848 158.681 104.515C156.915 102.944 154.858 101.734 152.626 100.954C151.766 100.606 150.841 100.448 149.915 100.491C148.974 100.544 148.121 101.062 147.64 101.872C147.004 103.083 147.609 104.55 148.271 105.766C149.44 107.87 150.772 109.88 152.254 111.776C153.439 113.307 154.802 114.804 156.609 115.51C158.417 116.215 160.303 116.124 161.258 114.865" fill="#EBEBEB"/>
<path d="M164.273 138.286C164.336 138.033 164.373 137.773 164.381 137.512C164.437 136.949 164.502 136.244 164.584 135.405C164.69 134.367 164.849 133.336 165.06 132.315C165.336 131.07 165.712 129.848 166.185 128.663C166.646 127.482 167.272 126.372 168.044 125.366C168.672 124.545 169.476 123.876 170.397 123.406C171.022 123.098 171.692 122.89 172.382 122.788C172.642 122.778 172.9 122.742 173.152 122.679C172.892 122.649 172.629 122.649 172.369 122.679C171.654 122.734 170.954 122.916 170.302 123.216C169.332 123.674 168.482 124.351 167.819 125.193C167.01 126.212 166.358 127.347 165.886 128.56C165.409 129.761 165.035 131.002 164.77 132.268C164.572 133.301 164.435 134.346 164.359 135.396C164.295 136.292 164.269 137.019 164.256 137.516C164.236 137.773 164.241 138.031 164.273 138.286Z" fill="#E0E0E0"/>
<path d="M164.42 136.663C164.433 136.544 164.433 136.424 164.42 136.304V135.279C164.42 134.392 164.42 133.115 164.463 131.514C164.545 128.339 164.818 124.916 165.328 120.096C165.83 115.561 166.5 110.283 167.209 106.852C167.361 106.073 167.512 105.372 167.642 104.757C167.771 104.143 167.897 103.606 168.014 103.178C168.13 102.75 168.187 102.443 168.252 102.183C168.288 102.068 168.309 101.949 168.312 101.828C168.26 101.936 168.22 102.049 168.191 102.166L167.893 103.148C167.759 103.58 167.624 104.1 167.46 104.714C167.296 105.329 167.131 106.012 166.967 106.804C166.089 110.862 165.43 114.964 164.991 119.092C164.459 123.925 164.221 128.326 164.199 131.51C164.199 133.102 164.199 134.392 164.255 135.283C164.281 135.716 164.303 136.036 164.32 136.309C164.337 136.431 164.371 136.55 164.42 136.663Z" fill="#E0E0E0"/>
<path d="M164.441 128.182C164.469 127.825 164.469 127.466 164.441 127.109C164.402 126.421 164.307 125.43 164.113 124.21C163.876 122.789 163.558 121.381 163.161 119.996C162.702 118.286 162.113 116.613 161.397 114.994C160.169 112.01 158.41 109.273 156.207 106.916C155.824 106.513 155.417 106.134 154.987 105.782C154.797 105.622 154.633 105.466 154.464 105.35L153.993 105.021C153.707 104.805 153.405 104.613 153.089 104.445C153.041 104.515 154.365 105.311 156.043 107.08C158.173 109.456 159.883 112.178 161.098 115.128C161.8 116.738 162.394 118.393 162.876 120.082C163.338 121.636 163.646 123.064 163.879 124.267C164.113 125.469 164.225 126.456 164.312 127.14C164.326 127.49 164.369 127.839 164.441 128.182Z" fill="#E0E0E0"/>
<path d="M156.242 143.148L157.094 154.796H172.049L172.901 143.148H156.242Z" fill="#E0E0E0"/>
<path d="M174.683 138.562H154.797V143.153H174.683V138.562Z" fill="#E0E0E0"/>
<path d="M154.797 154.352V155.628H155.731H174.354V154.352H154.797Z" fill="#EBEBEB"/>
<path d="M156.648 157.862L155.731 155.625H173.645L172.576 157.862H156.648Z" fill="#E0E0E0"/>
<path d="M172.62 146.958C172.62 146.958 172.62 146.997 172.55 147.067L172.33 147.361L171.465 148.477L171.426 148.529L171.391 148.477L169.259 145.526H169.38L167.274 148.512L167.205 148.607L167.131 148.516L164.614 145.526H164.761L164.623 145.699L162.387 148.503L162.314 148.598L162.244 148.499L160.134 145.526H160.259C159.217 146.708 158.339 147.716 157.665 148.486L157.621 148.538L157.582 148.477L156.769 147.11L156.562 146.746C156.536 146.706 156.514 146.662 156.497 146.617C156.531 146.653 156.561 146.692 156.588 146.734L156.817 147.084L157.682 148.425H157.582C158.244 147.642 159.113 146.625 160.134 145.427L160.199 145.353L160.259 145.431L162.387 148.404H162.244L164.472 145.596L164.61 145.422L164.679 145.336L164.753 145.422L167.248 148.404H167.097L169.229 145.435L169.289 145.349L169.35 145.435L171.448 148.43H171.37C171.75 147.971 172.053 147.608 172.278 147.344L172.52 147.062L172.62 146.958Z" fill="#F5F5F5"/>
<path d="M173.108 143.068C173.108 143.12 169.359 143.164 164.736 143.164C160.112 143.164 156.367 143.12 156.367 143.068C156.367 143.016 160.112 142.977 164.736 142.977C169.359 142.977 173.108 143.016 173.108 143.068Z" fill="#F5F5F5"/>
<path d="M173.865 155.748C173.865 155.8 169.792 155.843 164.783 155.843C159.775 155.843 155.701 155.8 155.701 155.748C155.701 155.695 159.775 155.656 164.783 155.656C169.792 155.656 173.865 155.7 173.865 155.748Z" fill="#F5F5F5"/>
<g opacity="0.8">
<path opacity="0.8" d="M148.737 60.9936C148.704 60.6567 148.728 60.3167 148.805 59.9873C149.15 58.4116 150.386 57.1847 151.964 56.8529C152.693 56.7017 153.449 56.7475 154.155 56.9857C154.935 57.2541 155.619 57.7472 156.12 58.403C157.225 59.8513 157.258 61.8518 156.201 63.3358C155.966 63.6796 155.677 63.9833 155.345 64.235C155.028 64.4813 154.676 64.6776 154.301 64.8174C153.603 65.0801 152.848 65.151 152.114 65.0229C150.526 64.7402 149.251 63.5545 148.852 61.9913C148.766 61.6661 148.733 61.3293 148.754 60.9936C148.797 61.3221 148.859 61.6481 148.938 61.9699C149.19 62.8398 149.724 63.6008 150.457 64.1323C151.548 64.9253 152.966 65.1107 154.224 64.6247C154.581 64.4901 154.915 64.3024 155.216 64.068C155.534 63.8284 155.812 63.5392 156.038 63.2116C157.037 61.8038 157.006 59.9098 155.961 58.5357C155.721 58.2155 155.432 57.9351 155.105 57.705C154.797 57.4801 154.457 57.3039 154.095 57.1826C153.426 56.9491 152.706 56.8988 152.011 57.037C151.404 57.1542 150.833 57.4139 150.346 57.7949C149.629 58.3499 149.12 59.1295 148.899 60.0087C148.825 60.3334 148.771 60.6623 148.737 60.9936Z" fill="#E0E0E0"/>
<path opacity="0.8" d="M143.742 58.852C143.698 58.8721 143.652 58.8864 143.605 58.8948L143.177 59.0061L141.52 59.4343L141.546 59.4001C141.567 60.3678 141.593 61.6438 141.627 63.1853L141.585 63.1339L143.827 63.5921H143.866V63.6307C144.094 64.4201 144.425 65.1759 144.85 65.8787L144.872 65.9172L144.85 65.9515L143.665 67.9126V67.8141L146.391 70.4476H146.284L148.197 69.1929L148.244 69.1587L148.291 69.1887C149.008 69.584 149.774 69.8848 150.568 70.0836H150.624V70.1435C150.795 70.8329 150.979 71.5908 151.172 72.3659L151.073 72.2888L154.861 72.2246L154.758 72.3059C154.904 71.608 155.066 70.8415 155.225 70.0622V70.0022H155.289C156.075 69.7778 156.828 69.4495 157.527 69.0259L157.583 68.9917L157.639 69.0259L159.595 70.2163H159.462L162.094 67.493V67.63L160.84 65.7117L160.806 65.656L160.836 65.5961C161.235 64.8846 161.537 64.1228 161.734 63.3309V63.2667H161.799L164.024 62.7272L163.939 62.8342C163.917 61.5496 163.896 60.2907 163.879 59.0447L163.964 59.1517L161.726 58.6807H161.662L161.64 58.6165C161.419 57.8301 161.094 57.077 160.673 56.377L160.639 56.3213L160.673 56.2657L161.863 54.3088V54.4415L159.145 51.8038H159.269L157.352 53.0585L157.3 53.0884L157.249 53.0585C156.536 52.6594 155.773 52.3571 154.981 52.1592H154.921V52.1036L154.382 49.877L154.476 49.9497L150.688 50.0054L150.769 49.9369C150.602 50.7248 150.444 51.4613 150.294 52.1764V52.2235H150.247C149.457 52.4451 148.7 52.7705 147.996 53.1912L147.957 53.2169L147.919 53.1912L145.997 52.0008H146.078L143.433 54.7156V54.6514L144.67 56.5782C144.362 57.1228 144.108 57.6965 143.913 58.291C143.853 58.4794 143.81 58.625 143.776 58.7192C143.742 58.8134 143.729 58.8648 143.729 58.8648C143.729 58.8648 143.729 58.8134 143.759 58.715C143.789 58.6165 143.819 58.4666 143.879 58.2867C144.061 57.692 144.305 57.118 144.606 56.574V56.6125C144.264 56.0901 143.849 55.4649 143.344 54.7027L143.322 54.6685L143.348 54.6428L145.971 51.9066L146.01 51.8681L146.053 51.898L148.013 53.0799H147.94C148.652 52.6458 149.42 52.3102 150.221 52.0822L150.162 52.1421C150.311 51.4313 150.465 50.6905 150.628 49.9026V49.8341H150.697L154.484 49.7656H154.557V49.8384C154.737 50.5621 154.917 51.2986 155.105 52.0608L155.032 51.9922C155.844 52.1919 156.626 52.5001 157.356 52.9086H157.253L159.167 51.6497L159.235 51.6069L159.295 51.6625L162.021 54.296L162.081 54.3559L162.034 54.4287L160.849 56.3856V56.2742C161.282 56.9898 161.617 57.7603 161.846 58.5651L161.76 58.488L164.003 58.959H164.088V59.0489C164.111 60.2964 164.133 61.5582 164.153 62.8342V62.9241L164.067 62.9455L161.841 63.4893L161.927 63.408C161.725 64.2199 161.417 65.0016 161.011 65.7331V65.6175L162.261 67.5358L162.312 67.6086L162.248 67.6728L159.612 70.3962L159.552 70.4561L159.479 70.4133L157.523 69.2186H157.634C156.918 69.6524 156.146 69.9866 155.34 70.212L155.417 70.135C155.255 70.91 155.092 71.6765 154.946 72.3744V72.4558H154.861L151.073 72.5157H150.996V72.4387L150.457 70.212L150.525 70.2848C149.715 70.0795 148.935 69.7685 148.206 69.3599H148.304L146.382 70.606L146.327 70.6445L146.275 70.5974L143.558 67.9554L143.515 67.9126L143.545 67.857L144.739 65.9044V65.9772C144.312 65.2618 143.983 64.4929 143.759 63.6906L143.806 63.7377L141.567 63.2624H141.525V63.2196C141.525 61.6738 141.495 60.3978 141.482 59.43V59.4001H141.503L143.155 59.0147L143.583 58.9205L143.742 58.852Z" fill="#E0E0E0"/>
<path opacity="0.8" fill-rule="evenodd" clip-rule="evenodd" d="M32.9687 48.4094C33.1926 47.5122 33.5337 46.6484 33.983 45.8402L32.5835 43.6992L35.5281 40.6547L37.7194 41.9864C38.5117 41.5093 39.3637 41.1392 40.2531 40.886L40.7753 38.381L45.0124 38.3125L45.6202 40.8003C46.5176 41.0225 47.3812 41.3638 48.1881 41.8152L50.3281 40.415L53.3711 43.3609L52.0529 45.549C52.5306 46.3413 52.9005 47.1938 53.1529 48.084L55.6566 48.6064L55.7251 52.8455L53.2385 53.4536C53.0164 54.3514 52.6753 55.2155 52.2241 56.0227L53.6236 58.1637L50.6791 61.2082L48.4877 59.8765C47.6958 60.3545 46.8437 60.7245 45.954 60.977L45.4319 63.4819L41.1947 63.5504L40.587 61.0626C39.6896 60.8405 38.8259 60.4992 38.019 60.0478L35.879 61.448L32.836 58.502L34.1671 56.3096C33.6901 55.517 33.3202 54.6646 33.0671 53.7747L30.5634 53.2523L30.4949 49.0132L32.9815 48.4051L32.9687 48.4094ZM38.5326 50.8116C38.5623 52.6509 39.6967 54.2911 41.4066 54.9673C43.1166 55.6434 45.0653 55.2223 46.3438 53.9002C47.6224 52.5782 47.9789 50.6158 47.2471 48.9282C46.5152 47.2406 44.8393 46.1604 43.0008 46.1913C40.5005 46.2452 38.5134 48.3098 38.554 50.8116H38.5326Z" fill="#E0E0E0"/>
<path opacity="0.8" fill-rule="evenodd" clip-rule="evenodd" d="M130.576 37.4458C130.64 37.187 130.738 36.9379 130.867 36.705L130.465 36.0841L131.321 35.2063L131.95 35.5917C132.179 35.4536 132.425 35.3457 132.682 35.2705L132.832 34.5469H134.056L134.231 35.262C134.49 35.3283 134.739 35.4276 134.972 35.5574L135.592 35.1549L136.47 36.0113L136.089 36.645C136.225 36.8745 136.332 37.1206 136.405 37.3773L137.129 37.5271V38.7518L136.414 38.9273C136.347 39.1857 136.248 39.4345 136.119 39.6681L136.525 40.289L135.669 41.1454L135.036 40.76C134.807 40.8985 134.561 41.0051 134.304 41.0769L134.154 41.8005L132.93 41.8219L132.755 41.1026C132.496 41.0389 132.247 40.941 132.014 40.8114L131.394 41.2139L130.516 40.3575L130.901 39.7238C130.763 39.4953 130.657 39.2489 130.585 38.9916L129.861 38.8417V37.6171L130.58 37.4415L130.576 37.4458ZM132.185 38.1395C132.194 38.6718 132.523 39.1463 133.018 39.3411C133.514 39.5359 134.077 39.4126 134.446 39.0288C134.815 38.6451 134.916 38.0766 134.702 37.5891C134.488 37.1016 134.001 36.7914 133.469 36.8035C133.119 36.8113 132.787 36.9586 132.546 37.2126C132.305 37.4667 132.175 37.8064 132.185 38.1566V38.1395Z" fill="#E0E0E0"/>
<path opacity="0.8" fill-rule="evenodd" clip-rule="evenodd" d="M4.79347 50.1231C4.8909 49.7647 5.03478 49.4207 5.22146 49.0997L4.66079 48.2433L5.82921 47.0229L6.6852 47.5539C7.00067 47.3655 7.34054 47.2214 7.69526 47.1257L7.90498 46.1237L9.61695 46.0938L9.86091 47.0872C10.2184 47.1866 10.5621 47.3304 10.8838 47.5154L11.7398 46.9587L12.9553 48.1362L12.4246 48.9926C12.6112 49.3107 12.7551 49.6519 12.8526 50.0075L13.8541 50.2173L13.8841 51.9087L12.8868 52.1527C12.7976 52.5112 12.6624 52.8567 12.4845 53.1804L13.0409 54.0368L11.8639 55.2529L11.0079 54.7219C10.691 54.9103 10.3497 55.0544 9.99359 55.1501L9.78387 56.1521L8.0719 56.1821L7.82794 55.1887C7.46942 55.098 7.12415 54.9613 6.80076 54.7819L5.94477 55.3428L4.73783 54.1396L5.26854 53.2832C5.07948 52.9664 4.93543 52.6249 4.84055 52.2684L3.83904 52.0585L3.80908 50.3672L4.80203 50.1231H4.79347ZM7.02759 51.0822C7.04415 52.0831 7.86727 52.8817 8.86769 52.8676C9.8681 52.8534 10.6683 52.0318 10.6566 51.0309C10.6449 50.03 9.82564 49.2274 8.82517 49.2367C8.34162 49.2412 7.87987 49.4386 7.54238 49.7851C7.20489 50.1316 7.01959 50.5985 7.02759 51.0822Z" fill="#EBEBEB"/>
<path opacity="0.8" fill-rule="evenodd" clip-rule="evenodd" d="M12.2237 87.4658C12.4108 86.7166 12.6988 85.9963 13.0797 85.3248L11.9199 83.5477L14.3594 81.0257L16.1698 82.1304C16.8246 81.7331 17.53 81.4263 18.267 81.2184L18.695 79.1416L22.2003 79.0859L22.7053 81.1456C23.4536 81.3342 24.1733 81.6223 24.8453 82.002L26.6172 80.8415L29.138 83.2823L28.0381 85.0935C28.4321 85.7496 28.7372 86.4552 28.9455 87.1917L31.0212 87.6199L31.0811 91.1268L29.0182 91.6321C28.8297 92.3808 28.5418 93.1009 28.1622 93.7731L29.3221 95.5458L26.8825 98.0679L25.0892 96.9589C24.4335 97.3542 23.7283 97.6609 22.9921 97.871L22.5213 99.9563L19.0117 100.016L18.511 97.9566C17.7628 97.7675 17.0431 97.4795 16.371 97.1002L14.5948 98.2606L12.0739 95.8199L13.1782 94.0043C12.7796 93.3501 12.4728 92.6441 12.2665 91.9062L10.1908 91.478L10.1351 87.9667L12.1938 87.4658H12.2237ZM16.8461 89.4526C16.8688 90.9772 17.8077 92.3378 19.2245 92.8995C20.6414 93.4612 22.2569 93.1133 23.3173 92.0181C24.3776 90.9229 24.6738 89.2963 24.0675 87.8974C23.4612 86.4985 22.072 85.603 20.5482 85.6288C19.5504 85.6446 18.5998 86.0563 17.9054 86.7735C17.2111 87.4906 16.8301 88.4543 16.8461 89.4526Z" fill="#F5F5F5"/>
<path opacity="0.8" fill-rule="evenodd" clip-rule="evenodd" d="M84.5332 14.8705C84.614 14.5464 84.7362 14.2341 84.8969 13.9413L84.3919 13.1706L85.4576 12.0701L86.2451 12.5497C86.5303 12.3787 86.8368 12.2462 87.1568 12.1557L87.3493 11.2523L88.873 11.2266L89.0913 12.1215C89.4162 12.2012 89.7287 12.3251 90.02 12.4897L90.7904 11.9845L91.8904 13.0464L91.4281 13.8386C91.6008 14.1229 91.7333 14.4299 91.8219 14.7506L92.7249 14.939L92.7506 16.4677L91.8561 16.6861C91.7757 17.0109 91.6519 17.3235 91.4881 17.6153L91.9931 18.386L90.9317 19.4865L90.1441 19.0069C89.8575 19.1779 89.5495 19.3104 89.2282 19.4008L89.0399 20.3043L87.512 20.33L87.2937 19.4351C86.9701 19.3554 86.659 19.2315 86.3692 19.0669L85.5946 19.5721L84.4989 18.5102L84.9783 17.718C84.806 17.4329 84.6721 17.1262 84.5802 16.806L83.6772 16.6176L83.6515 15.0889L84.5503 14.8705H84.5332ZM86.5447 15.7269C86.559 16.6325 87.3043 17.355 88.2095 17.3408C89.1146 17.3266 89.8369 16.581 89.8227 15.6754C89.8086 14.7698 89.0634 14.0472 88.1583 14.0612C87.7224 14.0691 87.3074 14.2499 87.0048 14.5639C86.7022 14.8779 86.5367 15.2994 86.5447 15.7355V15.7269Z" fill="#F5F5F5"/>
<path opacity="0.8" d="M12.8571 26.8127C13.112 26.7916 13.3682 26.7916 13.6232 26.8127C13.8714 26.8127 14.1753 26.8127 14.522 26.8384C14.8686 26.8641 15.2752 26.8769 15.7118 26.9326C16.7429 27.0363 17.7674 27.1978 18.7805 27.4164C20.0191 27.686 21.2398 28.032 22.4356 28.4527C23.6247 28.8959 24.7853 29.4121 25.9109 29.9985C26.8271 30.4834 27.7146 31.021 28.5687 31.6085C28.9411 31.8483 29.2535 32.0966 29.5402 32.3022C29.827 32.5077 30.0581 32.7004 30.2464 32.8631C30.4497 33.0189 30.6413 33.1892 30.8199 33.3727C30.5985 33.2479 30.3881 33.1047 30.1908 32.9445C29.9939 32.7946 29.7628 32.6148 29.4632 32.4178C29.1636 32.2208 28.8555 31.9896 28.4831 31.7498C27.7512 31.2659 26.8439 30.735 25.8167 30.1954C24.694 29.623 23.5394 29.1154 22.3585 28.6753C21.1728 28.2501 19.9639 27.8927 18.7377 27.6048C17.7328 27.3771 16.7172 27.1999 15.6947 27.0739C15.2667 27.0097 14.8643 26.9882 14.5134 26.9497C14.1624 26.9112 13.8671 26.8983 13.6189 26.8855C13.3634 26.8812 13.1087 26.8568 12.8571 26.8127Z" fill="#4F6168"/>
<path opacity="0.8" d="M4.92603 74.5141C4.99535 74.4399 5.07289 74.3738 5.15714 74.3171L5.84193 73.799C6.13725 73.572 6.5096 73.298 6.95471 73.0068C7.39983 72.7156 7.89202 72.3645 8.46981 72.0263C9.0476 71.688 9.66391 71.294 10.3615 70.9258C11.0592 70.5575 11.8039 70.1722 12.5999 69.7825C14.3411 68.9705 16.1306 68.267 17.9584 67.6758C19.7937 67.1075 21.6617 66.6513 23.5523 66.3098C24.4083 66.1728 25.2643 66.0272 26.0432 65.9544C26.8222 65.8816 27.554 65.8003 28.2217 65.7617C28.8894 65.7232 29.5057 65.7061 30.0278 65.6932C30.55 65.6804 31.0165 65.6932 31.3889 65.6932L32.2449 65.7232C32.3454 65.7207 32.4458 65.7293 32.5445 65.7489C32.4448 65.759 32.3445 65.759 32.2449 65.7489H31.3889C31.0165 65.7489 30.5586 65.7489 30.0278 65.7831C29.4971 65.8174 28.8979 65.8174 28.2346 65.8859C27.5712 65.9544 26.8393 65.9929 26.0646 66.1043C25.29 66.2156 24.4597 66.3355 23.5908 66.4768C21.7108 66.8272 19.853 67.2876 18.0269 67.8556C16.2039 68.4607 14.4176 69.1713 12.677 69.9837C11.8852 70.3691 11.1277 70.7245 10.4429 71.1056C9.75807 71.4867 9.11608 71.8378 8.54257 72.1761C7.96906 72.5144 7.46403 72.8484 7.01463 73.131C6.56524 73.4136 6.18861 73.6705 5.88473 73.8846L5.17426 74.3728C5.09496 74.4257 5.01201 74.4729 4.92603 74.5141Z" fill="#4F6168"/>
<path opacity="0.8" d="M35.6858 97.5297C35.6859 97.4516 35.696 97.3739 35.7158 97.2984L35.8442 96.639C35.8998 96.3564 35.9768 96.0096 36.0795 95.6113C36.1823 95.2131 36.285 94.7549 36.4348 94.2539C36.713 93.252 37.0939 92.0787 37.5775 90.7898C38.0612 89.501 38.6603 88.1179 39.3665 86.6963C40.0727 85.2746 40.8388 83.9729 41.5707 82.8082C42.3026 81.6435 43.0259 80.6416 43.6636 79.8108C43.9717 79.3827 44.2756 79.0358 44.5196 78.7147C44.7635 78.3935 45.0075 78.128 45.2044 77.9097L45.6324 77.4129C45.7394 77.3016 45.795 77.2459 45.8036 77.2502C45.7663 77.32 45.7203 77.3848 45.6666 77.4429C45.5596 77.5842 45.4184 77.7555 45.2386 77.9653C45.0589 78.1751 44.832 78.4663 44.5838 78.796C44.3355 79.1257 44.0402 79.4854 43.7278 79.9093C43.1115 80.7358 42.4181 81.7549 41.6863 82.9067C40.9544 84.0586 40.2182 85.3731 39.5078 86.7862C38.7973 88.1992 38.2238 89.578 37.7059 90.8498C37.188 92.1215 36.82 93.2948 36.5247 94.2754C36.3663 94.7721 36.2507 95.2259 36.1395 95.6199C36.0282 96.0138 35.9383 96.3564 35.8698 96.639C35.8013 96.9216 35.7457 97.1143 35.6986 97.2856C35.7033 97.3672 35.699 97.449 35.6858 97.5297Z" fill="#4F6168"/>
<path opacity="0.8" d="M93.8335 0C93.7857 0.0904568 93.7298 0.17644 93.6666 0.256918L93.1402 0.980572C92.9133 1.28887 92.6394 1.66997 92.3398 2.12386C92.0402 2.57775 91.6764 3.08302 91.3169 3.66537C90.9574 4.24772 90.5722 4.87717 90.1442 5.57513C89.7162 6.27309 89.3182 7.02672 88.8816 7.81888C88.0256 9.42462 87.1697 11.2445 86.3864 13.1585C85.6032 15.0725 84.9655 16.9866 84.4476 18.7251C84.2079 19.5815 83.964 20.4379 83.7842 21.2129C83.6045 21.9879 83.4333 22.7287 83.292 23.401C83.1508 24.0733 83.0481 24.6856 82.9496 25.2165C82.8512 25.7475 82.7784 26.2185 82.7271 26.5996C82.6757 26.9807 82.6244 27.2505 82.5901 27.456C82.5798 27.558 82.5583 27.6585 82.5259 27.7558C82.5164 27.6532 82.5164 27.55 82.5259 27.4475C82.5516 27.2248 82.5816 26.9336 82.6244 26.5911C82.6672 26.2485 82.7185 25.7347 82.8127 25.2037C82.9068 24.6727 82.9796 24.0476 83.1208 23.3753C83.2621 22.703 83.3948 21.958 83.5873 21.1744C83.7799 20.3908 84.0153 19.5515 84.2336 18.6737C84.7429 16.9266 85.3764 15.0254 86.1596 13.0771C86.9428 11.1288 87.8288 9.33042 88.6847 7.72896C89.1127 6.93252 89.5407 6.17461 89.9687 5.48521C90.3967 4.79581 90.7905 4.1578 91.1671 3.58401C91.5437 3.01023 91.9075 2.50495 92.22 2.05963C92.5324 1.6143 92.8149 1.23321 93.076 0.93347C93.337 0.633732 93.4826 0.411069 93.6238 0.235509C93.6833 0.148319 93.7538 0.0691644 93.8335 0Z" fill="#4F6168"/>
<path opacity="0.8" d="M132.365 24.4837C132.282 24.5085 132.196 24.5243 132.108 24.5308L131.368 24.6293L130.833 24.6935C130.636 24.7235 130.426 24.7706 130.204 24.8092C129.75 24.9034 129.232 24.9762 128.676 25.1389L127.82 25.3658C127.512 25.4472 127.204 25.5628 126.883 25.6656C126.228 25.8625 125.56 26.1537 124.854 26.4406C121.805 27.7718 119.055 29.7043 116.769 32.1228C116.26 32.6923 115.759 33.2232 115.357 33.7713C115.151 34.0411 114.929 34.2894 114.753 34.5464L114.223 35.3C113.88 35.7667 113.636 36.2335 113.397 36.6231C113.281 36.8244 113.165 37.0042 113.071 37.1798L112.832 37.6594L112.489 38.3231C112.453 38.4042 112.407 38.4805 112.352 38.55C112.376 38.4659 112.408 38.3842 112.446 38.3059C112.528 38.1261 112.626 37.8777 112.755 37.6208L112.977 37.1284C113.067 36.9528 113.178 36.7687 113.29 36.5632C113.533 36.0989 113.801 35.6473 114.09 35.2101L114.595 34.4479C114.77 34.1824 114.984 33.9298 115.19 33.6557C115.592 33.0991 116.089 32.5595 116.598 31.9815C118.887 29.5237 121.664 27.5721 124.751 26.2522C125.466 25.9696 126.142 25.6827 126.801 25.49C127.131 25.3915 127.443 25.2759 127.752 25.1988L128.637 24.9847C129.147 24.8589 129.663 24.7603 130.183 24.6893C130.409 24.6507 130.61 24.6122 130.82 24.5908L131.359 24.5437L132.104 24.488C132.191 24.4743 132.278 24.4729 132.365 24.4837Z" fill="#4F6168"/>
<path opacity="0.8" d="M163.836 49.97L163.725 49.9358L163.404 49.8287L162.175 49.4005L161.289 49.0751C160.964 48.9638 160.605 48.8567 160.219 48.7325C159.453 48.4927 158.589 48.1887 157.604 47.9404L156.072 47.5122C155.537 47.3666 154.972 47.2553 154.394 47.1182C153.239 46.8313 151.981 46.6215 150.667 46.3817C144.929 45.4233 139.088 45.2447 133.303 45.8508C131.976 46.0092 130.709 46.1419 129.537 46.356C128.95 46.4588 128.381 46.5359 127.825 46.6472L126.271 46.9684C125.274 47.1568 124.392 47.3966 123.609 47.6021C123.219 47.7006 122.856 47.7862 122.526 47.8761L121.619 48.1459L120.369 48.5142L120.039 48.6041C120.001 48.6093 119.962 48.6093 119.924 48.6041L120.031 48.5613L120.352 48.4499L121.593 48.0217L122.496 47.7348C122.826 47.6364 123.189 47.5422 123.579 47.4351C124.358 47.2339 125.24 46.9726 126.237 46.7714L127.795 46.4331C128.334 46.3175 128.907 46.2361 129.507 46.1334C130.684 45.9064 131.95 45.7694 133.282 45.6024C139.085 44.972 144.947 45.1521 150.701 46.1377C152.019 46.386 153.269 46.6001 154.433 46.8956C155.015 47.0369 155.58 47.1525 156.115 47.3238L157.647 47.752C158.632 48.0132 159.492 48.33 160.258 48.5784C160.643 48.7068 160.998 48.8225 161.324 48.9424L162.205 49.2849L163.421 49.7645L163.733 49.8972C163.802 49.9486 163.84 49.9657 163.836 49.97Z" fill="#4F6168"/>
</g>
<path d="M167.339 77.0174C167.239 77.0481 167.142 77.0853 167.047 77.1288L166.231 77.4952C165.878 77.6576 165.447 77.8524 164.932 78.0612C164.418 78.2699 163.852 78.525 163.198 78.7616C162.545 78.9982 161.84 79.2858 161.066 79.5409C160.291 79.7961 159.461 80.0605 158.585 80.3295C156.823 80.8352 154.876 81.3176 152.78 81.698C150.684 82.0784 148.69 82.301 146.864 82.4402C145.936 82.4958 145.079 82.5562 144.263 82.5654C143.446 82.5747 142.686 82.5886 141.995 82.5654C141.304 82.5422 140.674 82.5283 140.141 82.5098C139.607 82.4912 139.116 82.4634 138.75 82.4309C138.383 82.3984 138.087 82.3892 137.859 82.3752C137.755 82.3633 137.649 82.3633 137.544 82.3752C137.646 82.3988 137.75 82.4159 137.855 82.4263C138.083 82.4479 138.38 82.4804 138.745 82.5237C139.13 82.5701 139.603 82.6165 140.136 82.6443C140.669 82.6721 141.318 82.7278 141.991 82.7324C142.663 82.7371 143.446 82.7695 144.267 82.7324C145.088 82.6953 145.96 82.6768 146.878 82.6304C150.87 82.3749 154.819 81.6637 158.65 80.5104C159.526 80.2367 160.365 79.9816 161.13 79.6986C161.896 79.4157 162.614 79.1513 163.259 78.8915C163.903 78.6317 164.483 78.372 164.988 78.1493C165.494 77.9266 165.915 77.7225 166.272 77.5462L167.07 77.1427C167.164 77.1106 167.254 77.0686 167.339 77.0174Z" fill="#FF725E"/>
<path d="M173.573 110.981C174.37 111.826 175.069 112.76 175.655 113.764C176.167 114.808 176.559 115.907 176.823 117.039C176.847 116.691 176.812 116.341 176.721 116.005C176.554 115.182 176.266 114.388 175.868 113.648C175.471 112.909 174.97 112.231 174.38 111.635C174.151 111.372 173.878 111.151 173.573 110.981Z" fill="#FF725E"/>
<path d="M153.39 107.414C153.337 107.342 153.274 107.276 153.205 107.219L152.653 106.704C152.189 106.24 151.452 105.633 150.539 104.891C149.625 104.148 148.512 103.299 147.242 102.404C145.972 101.509 144.525 100.586 142.976 99.6858C141.428 98.7859 139.898 98.0066 138.493 97.3386C137.088 96.6706 135.794 96.1325 134.695 95.715C133.597 95.2975 132.697 94.9774 132.071 94.7872C131.781 94.7006 131.539 94.6264 131.348 94.5646C131.264 94.5335 131.177 94.5132 131.088 94.5043C131.165 94.5502 131.248 94.5861 131.334 94.611L132.039 94.88C132.655 95.098 133.545 95.4367 134.63 95.8774C135.715 96.318 136.995 96.8793 138.395 97.5427C139.796 98.206 141.303 99.0039 142.856 99.8992C144.409 100.794 145.832 101.718 147.112 102.59C148.392 103.462 149.514 104.301 150.432 105.03C151.35 105.758 152.092 106.352 152.593 106.779L153.172 107.242C153.238 107.308 153.311 107.366 153.39 107.414Z" fill="#FF725E"/>
<path d="M149.222 66.4117C149.194 66.3885 148.893 66.7967 148.355 67.4137C146.962 69.0294 145.279 70.3699 143.394 71.3659C142.992 71.5533 142.6 71.7624 142.221 71.9922C142.656 71.8911 143.076 71.7352 143.472 71.5283C144.446 71.0639 145.363 70.4913 146.208 69.8212C147.053 69.1495 147.817 68.3821 148.485 67.5343C148.778 67.194 149.026 66.8166 149.222 66.4117Z" fill="#FF725E"/>
<path d="M137.398 105.148C137.209 104.744 136.97 104.364 136.689 104.017C136.048 103.148 135.321 102.346 134.519 101.623C133.72 100.898 132.848 100.258 131.918 99.7118C131.544 99.4664 131.14 99.2685 130.717 99.1226C131.075 99.386 131.447 99.6307 131.83 99.8556C132.722 100.439 133.569 101.091 134.361 101.804C135.15 102.521 135.883 103.296 136.555 104.123C136.814 104.482 137.096 104.825 137.398 105.148Z" fill="#FF725E"/>
<path d="M141.71 107.492C141.646 107.529 142.174 108.476 142.499 109.756C142.823 111.036 142.828 112.117 142.902 112.117C143.087 110.477 142.663 108.826 141.71 107.478V107.492Z" fill="#FF725E"/>
<path d="M160.188 106.68C160.098 106.462 159.988 106.254 159.858 106.058C159.636 105.664 159.283 105.13 158.824 104.444C158.278 103.665 157.693 102.914 157.072 102.194C155.546 100.433 153.811 98.8647 151.907 97.5227C151.132 96.9752 150.328 96.4688 149.5 96.0058C148.791 95.6115 148.207 95.3146 147.789 95.1337C147.582 95.0245 147.365 94.9359 147.14 94.8693C147.331 95.0042 147.535 95.1206 147.748 95.2172C148.151 95.4259 148.721 95.7414 149.412 96.145C150.103 96.5485 150.914 97.0727 151.781 97.6943C153.648 99.0471 155.358 100.603 156.882 102.333C157.605 103.126 158.222 103.892 158.685 104.518C159.149 105.144 159.534 105.706 159.779 106.086C159.897 106.296 160.034 106.494 160.188 106.68Z" fill="#FF725E"/>
<path d="M128.018 83.1919L129.932 101.414L155.747 98.6994L153.833 80.4772L128.018 83.1919Z" fill="#ADB7C4"/>
<path d="M155.29 98.5996L153.405 80.6543C153.264 79.3137 154.236 78.1127 155.576 77.9718L155.806 77.9476L158.202 100.752L157.972 100.776C157.328 100.844 156.683 100.653 156.18 100.244C155.677 99.8359 155.357 99.2443 155.29 98.5996Z" fill="#263238"/>
<path d="M155.512 75.1598L158.42 102.836L162.625 102.394L159.718 74.7176L155.512 75.1598Z" fill="#ADB7C4"/>
<path d="M151.009 80.8669C151.068 80.8606 151.544 84.8923 152.067 89.8748C152.59 94.8573 152.964 98.904 152.904 98.9102C152.845 98.9165 152.369 94.8848 151.846 89.8981C151.322 84.9114 150.945 80.8736 151.009 80.8669Z" fill="#263238"/>
<path d="M147.935 81.195C147.999 81.1883 148.47 85.2205 148.994 90.2029C149.517 95.1854 149.895 99.2316 149.831 99.2384C149.767 99.2451 149.296 95.2129 148.772 90.2262C148.248 85.2395 147.876 81.2013 147.935 81.195Z" fill="#263238"/>
<path d="M144.922 81.5153C144.982 81.5091 145.457 85.5408 145.98 90.5232C146.504 95.5057 146.877 99.5524 146.818 99.5587C146.758 99.5649 146.283 95.5332 145.759 90.5465C145.235 85.5598 144.862 81.5216 144.922 81.5153Z" fill="#263238"/>
<path d="M141.853 81.8357C141.913 81.8294 142.388 85.8611 142.911 90.8436C143.435 95.826 143.808 99.8727 143.749 99.879C143.689 99.8853 143.214 95.8536 142.69 90.8668C142.166 85.8801 141.811 81.8401 141.853 81.8357Z" fill="#263238"/>
<path d="M138.831 82.1482C138.894 82.1414 139.365 86.1736 139.889 91.1561C140.412 96.1385 140.79 100.185 140.726 100.191C140.662 100.198 140.191 96.1661 139.667 91.1793C139.144 86.1926 138.775 82.154 138.831 82.1482Z" fill="#263238"/>
<path d="M135.766 82.4763C135.83 82.4696 136.301 86.5017 136.825 91.4842C137.348 96.4666 137.726 100.513 137.662 100.52C137.598 100.526 137.127 96.4942 136.603 91.5075C136.079 86.5207 135.707 82.4825 135.766 82.4763Z" fill="#263238"/>
<path d="M132.753 82.7888C132.812 82.7825 133.287 86.8142 133.811 91.7967C134.334 96.7791 134.708 100.826 134.648 100.832C134.589 100.838 134.113 96.8067 133.589 91.82C133.066 86.8332 132.689 82.7955 132.753 82.7888Z" fill="#263238"/>
<path d="M129.684 83.1091C129.744 83.1028 130.219 87.1345 130.742 92.117C131.266 97.0995 131.639 101.146 131.58 101.152C131.52 101.159 131.045 97.127 130.521 92.1403C129.997 87.1535 129.62 83.1158 129.684 83.1091Z" fill="#263238"/>
<g opacity="0.3">
<path opacity="0.3" d="M133.157 101.075L129.974 82.9685L128.462 83.1471L130.897 101.311L133.157 101.075Z" fill="black"/>
</g>
<path d="M120.211 125.328H101.897V151.298H120.211V125.328Z" fill="#ADB7C4"/>
<path d="M102.038 150.852H120.074C121.421 150.852 122.513 151.944 122.513 153.292V153.524H99.5942V153.292C99.5942 152.644 99.8518 152.023 100.31 151.565C100.769 151.107 101.39 150.85 102.038 150.852Z" fill="#263238"/>
<path d="M125.321 153.523H97.5059V157.754H125.321V153.523Z" fill="#ADB7C4"/>
<path d="M120.104 148.448C120.104 148.508 116.046 148.56 111.039 148.56C106.031 148.56 101.97 148.508 101.97 148.448C101.97 148.388 106.027 148.336 111.039 148.336C116.051 148.336 120.104 148.383 120.104 148.448Z" fill="#263238"/>
<path d="M120.104 145.354C120.104 145.419 116.046 145.466 111.039 145.466C106.031 145.466 101.97 145.419 101.97 145.354C101.97 145.29 106.027 145.242 111.039 145.242C116.051 145.242 120.104 145.294 120.104 145.354Z" fill="#263238"/>
<path d="M120.104 142.323C120.104 142.383 116.046 142.435 111.039 142.435C106.031 142.435 101.97 142.383 101.97 142.323C101.97 142.263 106.027 142.211 111.039 142.211C116.051 142.211 120.104 142.263 120.104 142.323Z" fill="#263238"/>
<path d="M120.104 139.237C120.104 139.297 116.046 139.349 111.039 139.349C106.031 139.349 101.97 139.297 101.97 139.237C101.97 139.177 106.027 139.125 111.039 139.125C116.051 139.125 120.104 139.194 120.104 139.237Z" fill="#263238"/>
<path d="M120.104 136.198C120.104 136.262 116.046 136.31 111.039 136.31C106.031 136.31 101.97 136.262 101.97 136.198C101.97 136.133 106.027 136.086 111.039 136.086C116.051 136.086 120.104 136.142 120.104 136.198Z" fill="#263238"/>
<path d="M120.104 133.112C120.104 133.176 116.046 133.224 111.039 133.224C106.031 133.224 101.97 133.176 101.97 133.112C101.97 133.047 106.027 133 111.039 133C116.051 133 120.104 133.052 120.104 133.112Z" fill="#263238"/>
<path d="M120.104 130.081C120.104 130.141 116.046 130.193 111.039 130.193C106.031 130.193 101.97 130.141 101.97 130.081C101.97 130.02 106.027 129.969 111.039 129.969C116.051 129.969 120.104 130.016 120.104 130.081Z" fill="#263238"/>
<path d="M120.104 126.995C120.104 127.055 116.046 127.107 111.039 127.107C106.031 127.107 101.97 127.055 101.97 126.995C101.97 126.934 106.027 126.883 111.039 126.883C116.051 126.883 120.104 126.93 120.104 126.995Z" fill="#263238"/>
<g opacity="0.3">
<path opacity="0.3" d="M120.211 127.626L120.198 125.789H101.811L101.897 129.727L120.211 127.626Z" fill="black"/>
</g>
<path d="M85.0606 114.04L93.3054 113.173C93.3054 113.173 92.4776 153.426 64.857 156.206L64.3965 148.422C64.3965 148.422 83.0536 145.281 85.0606 114.04Z" fill="#ADB7C4"/>
<path d="M53.0092 149.866L52.8491 148.032C52.8115 147.601 53.1303 147.221 53.5612 147.183L61.0782 146.527L61.376 149.939L53.8591 150.596C53.6491 150.614 53.4407 150.547 53.2807 150.41C53.1208 150.273 53.0229 150.077 53.0092 149.866Z" fill="#ADB7C4"/>
<g opacity="0.3">
<path opacity="0.3" d="M53.0094 149.866L52.8493 148.032C52.8117 147.601 53.1306 147.221 53.5615 147.183L61.0784 146.527L61.3762 149.939L53.8593 150.596C53.6494 150.614 53.4409 150.547 53.281 150.41C53.1211 150.273 53.0232 150.077 53.0094 149.866Z" fill="black"/>
</g>
<path d="M53.718 156.834L53.5028 154.3C53.4428 153.593 53.9671 152.971 54.6738 152.911L61.699 152.314L62.1337 157.435L55.1341 158.029C54.7864 158.066 54.4388 157.959 54.1716 157.734C53.9043 157.508 53.7405 157.184 53.718 156.834Z" fill="#ADB7C4"/>
<path d="M57.8161 146.802L58.5752 155.5L61.8583 155.213L61.0992 146.515L57.8161 146.802Z" fill="#ADB7C4"/>
<path d="M64.7672 145.543L59.4794 146.164L60.8616 157.936L66.1494 157.314L64.7672 145.543Z" fill="#263238"/>
<path d="M65.9583 156.08C65.9687 156.178 64.81 156.374 63.3763 156.533C62.5093 156.666 61.6321 156.72 60.7553 156.696C61.6079 156.498 62.475 156.367 63.3483 156.307C64.0676 156.231 64.7189 156.162 65.1914 156.113L65.749 156.054C65.8195 156.056 65.8896 156.064 65.9583 156.08Z" fill="#455A64"/>
<path d="M65.7099 153.963C65.7202 154.061 64.5611 154.252 63.1275 154.412C62.2606 154.544 61.3837 154.6 60.5069 154.579C61.3595 154.38 62.2266 154.25 63.0998 154.189C63.8192 154.114 64.4705 154.045 64.943 153.996L65.5006 153.937C65.5712 153.936 65.6417 153.944 65.7099 153.963Z" fill="#455A64"/>
<path d="M65.5448 151.815C65.5551 151.913 64.4002 152.104 62.9623 152.264C62.0968 152.396 61.2214 152.452 60.346 152.43C61.1986 152.232 62.0657 152.102 62.939 152.041C63.6583 151.965 64.3096 151.897 64.7779 151.848L65.3355 151.789C65.406 151.789 65.4763 151.797 65.5448 151.815Z" fill="#455A64"/>
<path d="M65.2154 149.744C65.2257 149.842 64.067 150.038 62.6292 150.197C61.7635 150.33 60.8878 150.385 60.0124 150.36C60.865 150.162 61.7321 150.031 62.6053 149.971C63.3247 149.895 63.976 149.827 64.4485 149.777L65.0061 149.718C65.0765 149.72 65.1466 149.729 65.2154 149.744Z" fill="#455A64"/>
<path d="M65.0781 147.703C65.0885 147.802 63.9298 147.997 62.4962 148.156C61.629 148.287 60.7523 148.343 59.8756 148.324C60.7272 148.12 61.5947 147.99 62.4685 147.934C63.1879 147.859 63.8392 147.79 64.3117 147.741L64.8693 147.682C64.9395 147.682 65.0094 147.689 65.0781 147.703Z" fill="#455A64"/>
<path d="M68.8123 155.395C68.8123 155.395 68.8195 155.464 68.8602 155.606L68.8862 155.853L68.7888 155.622C68.3099 154.374 67.9017 153.1 67.566 151.806C67.2626 150.68 67.03 149.654 66.878 148.904C66.7762 148.502 66.7144 148.092 66.6934 147.679C66.8371 148.067 66.9509 148.465 67.0337 148.87C67.2189 149.608 67.4765 150.627 67.7667 151.751C68.2546 153.568 68.7205 155.095 68.838 155.599L68.7699 155.606C68.793 155.458 68.7995 155.397 68.8123 155.395Z" fill="#263238"/>
<path d="M72.6484 154.219C71.9824 152.963 71.3842 151.672 70.8564 150.352C70.2561 149.063 69.7253 147.744 69.2662 146.398C69.9323 147.655 70.5305 148.946 71.0583 150.266C71.6586 151.554 72.1894 152.874 72.6484 154.219Z" fill="#263238"/>
<path d="M77.0695 151.779C76.1938 150.607 75.3794 149.391 74.6296 148.135C73.3382 146.083 72.3306 144.398 72.3833 144.367C73.2572 145.541 74.0703 146.759 74.8194 148.016C76.1146 150.063 77.1179 151.748 77.0695 151.779Z" fill="#263238"/>
<path d="M80.8464 148.284C79.796 147.308 78.7998 146.276 77.862 145.192C76.8661 144.158 75.9235 143.075 75.0378 141.945C76.0874 142.924 77.0851 143.958 78.0269 145.041C79.6268 146.793 80.8897 148.245 80.8464 148.284Z" fill="#263238"/>
<path d="M84.0693 144.505C82.9005 143.7 81.7753 142.834 80.6982 141.91C79.576 141.043 78.4992 140.119 77.4723 139.141C78.6392 139.946 79.7631 140.812 80.8392 141.736C81.9621 142.603 83.0403 143.528 84.0693 144.505Z" fill="#263238"/>
<path d="M86.5906 140.118C86.2005 140.002 85.8226 139.849 85.4623 139.66L82.7876 138.451L80.1177 137.247C79.737 137.1 79.3707 136.918 79.0234 136.703C79.4193 136.8 79.8051 136.933 80.1757 137.103C80.876 137.378 81.8359 137.789 82.8782 138.248C83.9205 138.707 84.8564 139.177 85.525 139.52C85.8976 139.687 86.2543 139.887 86.5906 140.118Z" fill="#263238"/>
<path d="M88.1528 135.774C87.7812 135.69 87.4185 135.571 87.0698 135.418C86.4118 135.177 85.4992 134.847 84.4903 134.501C83.4813 134.155 82.5557 133.865 81.8877 133.651C81.5186 133.556 81.1583 133.43 80.8109 133.273C81.1905 133.307 81.5652 133.383 81.9279 133.5C82.6089 133.674 83.5454 133.946 84.5629 134.291C85.5804 134.636 86.4829 134.993 87.1273 135.27C87.4852 135.403 87.8288 135.572 88.1528 135.774Z" fill="#263238"/>
<path d="M90.1166 131.53C89.7154 131.546 89.3135 131.522 88.917 131.458C88.1769 131.376 87.1724 131.236 86.0453 131.036C84.9183 130.836 83.9262 130.609 83.2055 130.426C82.8112 130.349 82.4256 130.232 82.0543 130.078C82.4547 130.108 82.8517 130.173 83.2409 130.272C83.9661 130.415 84.9726 130.615 86.0844 130.834C87.1961 131.053 88.2053 131.197 88.9368 131.318C89.3355 131.354 89.7302 131.425 90.1166 131.53Z" fill="#263238"/>
<path d="M90.9662 127.363C89.6415 127.444 88.3133 127.451 86.9878 127.386C85.6613 127.393 84.3355 127.326 83.0164 127.188C84.3411 127.107 85.6692 127.099 86.9948 127.165C88.3213 127.153 89.6474 127.219 90.9662 127.363Z" fill="#263238"/>
<path d="M91.9058 123.286C91.5271 123.355 91.1421 123.384 90.7573 123.372C90.0453 123.395 89.0616 123.412 87.9778 123.419C86.894 123.425 85.9076 123.417 85.1997 123.397C84.8141 123.41 84.4282 123.386 84.0474 123.324C84.4283 123.26 84.8145 123.232 85.2006 123.241C85.9126 123.218 86.892 123.201 87.9758 123.195C89.0596 123.189 90.0418 123.197 90.7535 123.213C91.139 123.202 91.5247 123.226 91.9058 123.286Z" fill="#263238"/>
<path d="M92.5481 119.364C91.2013 119.658 89.8401 119.882 88.4699 120.034C87.1099 120.254 85.7386 120.398 84.3624 120.466C85.7092 120.171 87.0704 119.948 88.4406 119.796C89.801 119.578 91.1722 119.434 92.5481 119.364Z" fill="#263238"/>
<path d="M92.6504 116.2C92.2928 116.335 91.9225 116.433 91.545 116.493C90.8546 116.639 89.8946 116.8 88.8267 116.916C87.7588 117.033 86.7829 117.084 86.0782 117.093C85.6974 117.119 85.3151 117.104 84.9375 117.05C85.3106 116.977 85.6895 116.937 86.0697 116.931C86.7704 116.883 87.7355 116.812 88.7987 116.691C89.862 116.571 90.8246 116.435 91.5153 116.332C91.889 116.255 92.2689 116.21 92.6504 116.2Z" fill="#263238"/>
<path d="M85.5421 115.184C85.552 115.218 85.5558 115.254 85.5533 115.29L85.5864 115.605C85.6155 115.882 85.6584 116.291 85.6837 116.818C85.7698 118.31 85.7501 119.807 85.6249 121.297C85.4469 123.51 85.0499 125.699 84.4395 127.833C82.9672 133.089 80.2205 137.901 76.4433 141.84C74.911 143.446 73.2241 144.897 71.4071 146.172C70.1868 147.035 68.9062 147.81 67.5752 148.49C67.1106 148.737 66.7315 148.898 66.4835 149.036L66.1958 149.165C66.1635 149.183 66.1284 149.195 66.0921 149.202C66.1193 149.177 66.1509 149.158 66.1851 149.145L66.462 148.995C66.7062 148.862 67.0797 148.689 67.541 148.451C68.8496 147.742 70.1118 146.951 71.3202 146.082C79.4233 140.294 84.6024 131.26 85.5046 121.34C85.6428 119.857 85.6861 118.367 85.6341 116.879C85.6264 116.354 85.5834 115.946 85.5756 115.667C85.5622 115.539 85.5515 115.437 85.5425 115.351C85.5296 115.296 85.5295 115.239 85.5421 115.184Z" fill="white"/>
<g opacity="0.3">
<path opacity="0.3" d="M90.3138 130.936L90.9998 128.645L82.3388 129.261L81.1108 132.306L90.3138 130.936Z" fill="black"/>
</g>
<path d="M62.5504 87.1607L65.021 110.557L64.6592 110.595C62.5435 110.817 60.6481 109.282 60.4257 107.165L58.7586 91.4172C58.5463 89.3061 60.0795 87.4205 62.1886 87.1987L62.5504 87.1607Z" fill="#263238"/>
<path d="M124.504 79.7812L124.904 79.7392C126.992 79.5197 128.862 81.0348 129.081 83.1233L131.166 101.368C131.385 103.457 129.871 105.328 127.783 105.547L127.383 105.589L124.504 79.7812Z" fill="#263238"/>
<path d="M118.994 76.1095L67.4265 81.5321C64.1072 81.8811 61.6992 84.8562 62.0481 88.1771L65.7054 122.99C66.0542 126.311 69.0279 128.721 72.3472 128.371L123.915 122.949C127.234 122.6 129.642 119.625 129.293 116.304L125.636 81.4906C125.287 78.1697 122.313 75.7605 118.994 76.1095Z" fill="#ADB7C4"/>
<path d="M101.822 82.9445C93.7753 83.7906 87.9377 91.0029 88.7834 99.0535L117.928 95.9888C117.521 92.1221 115.596 88.5752 112.576 86.1288C109.555 83.6824 105.687 82.5369 101.822 82.9445Z" fill="white"/>
<path d="M115.032 95.5827C115.645 95.5183 116.198 95.4601 116.598 95.418C116.815 95.3844 117.035 95.3757 117.254 95.3923C117.044 95.4515 116.829 95.4901 116.612 95.5074C116.186 95.5522 115.654 95.6081 115.041 95.6726L113.475 95.8373L112.998 95.8875C112.941 95.9004 112.882 95.9066 112.823 95.9058C112.88 95.8902 112.939 95.884 112.998 95.8875L113.472 95.8159L115.032 95.5827Z" fill="#E0E0E0"/>
<path d="M113.539 91.2895C114.59 90.6451 115.471 90.1779 115.505 90.2216C115.54 90.2654 114.71 90.8392 113.647 91.4547C113.019 91.8595 112.362 92.2164 111.68 92.5226C112.268 92.066 112.89 91.6538 113.539 91.2895Z" fill="#E0E0E0"/>
<path d="M110.428 87.9661C111.14 86.9612 111.763 86.1809 111.824 86.2219C111.884 86.263 111.335 87.1042 110.605 88.0939C110.184 88.7089 109.717 89.2906 109.208 89.8338C109.567 89.1817 109.975 88.5574 110.428 87.9661Z" fill="#E0E0E0"/>
<path d="M106.287 86.0785C106.425 85.3453 106.645 84.6302 106.945 83.9469C107.016 83.9653 106.817 84.942 106.5 86.1464C106.332 86.8723 106.11 87.5849 105.838 88.2785C105.931 87.5347 106.081 86.7992 106.287 86.0785Z" fill="#E0E0E0"/>
<path d="M101.742 85.7883C101.613 84.5618 101.543 83.566 101.615 83.5584C101.688 83.5508 101.839 84.5381 101.959 85.7655C102.057 86.5047 102.098 87.2503 102.081 87.9958C101.911 87.27 101.797 86.5319 101.742 85.7883Z" fill="#E0E0E0"/>
<path d="M97.3773 87.09C96.8313 85.9892 96.417 85.0769 96.4811 85.0314C96.5452 84.9859 97.0338 85.8689 97.5467 86.9817C97.9005 87.6425 98.2003 88.331 98.4429 89.0403C98.0398 88.4175 97.6837 87.7656 97.3773 87.09Z" fill="#E0E0E0"/>
<path d="M93.7746 89.8687C92.854 89.0528 92.143 88.3482 92.193 88.2913C92.243 88.2344 93.0157 88.8721 93.9211 89.7069C94.4854 90.1858 95.0133 90.7059 95.5004 91.2631C94.8904 90.8431 94.3134 90.3769 93.7746 89.8687Z" fill="#E0E0E0"/>
<path d="M91.4901 93.8078C90.3179 93.423 89.3885 93.0557 89.4111 92.9845C89.4338 92.9132 90.3968 93.1908 91.5607 93.6195C92.2715 93.841 92.9648 94.1149 93.6351 94.4391C92.9053 94.2825 92.1883 94.0715 91.4901 93.8078Z" fill="#E0E0E0"/>
<path d="M91.0153 98.2195C90.4023 98.2839 89.8489 98.3421 89.4445 98.3846C89.2284 98.4128 89.0101 98.4199 88.7926 98.4056C89.0032 98.3439 89.2202 98.3065 89.4394 98.2943C89.8395 98.2523 90.3929 98.1941 91.0058 98.1296L92.575 97.9906L93.054 97.9618C93.1093 97.9461 93.1669 97.94 93.2243 97.9439C93.1685 97.957 93.1113 97.963 93.054 97.9618L92.5773 98.012L91.0153 98.2195Z" fill="#E0E0E0"/>
<path d="M77.7946 88.0573C77.8787 88.8412 77.4823 89.5985 76.7904 89.9759C76.0984 90.3532 75.2474 90.2762 74.6345 89.7807C74.0215 89.2852 73.7675 88.469 73.9909 87.7129C74.2142 86.9568 74.8711 86.41 75.6548 86.3276C76.7227 86.2153 77.68 86.9891 77.7946 88.0573Z" fill="white"/>
<path d="M78.4073 93.8932C78.4913 94.6771 78.0949 95.4345 77.403 95.8118C76.7111 96.1892 75.8601 96.1121 75.2472 95.6166C74.6342 95.1211 74.3801 94.3049 74.6035 93.5488C74.8269 92.7928 75.4837 92.2459 76.2674 92.1635C77.3354 92.0512 78.2927 92.825 78.4073 93.8932Z" fill="#455A64"/>
<path d="M118.156 119.471C118.156 119.471 118.143 119.347 118.118 119.109C118.093 118.87 118.056 118.517 118.009 118.066C117.912 117.141 117.77 115.796 117.568 114.073C117.204 110.611 116.654 105.623 115.991 99.4711L116.08 99.5435L76.4256 103.743L76.5247 103.621C77.266 110.677 77.9768 117.444 78.6273 123.636L78.5102 123.545L107 120.597L115.218 119.763L117.414 119.532L117.984 119.472L118.18 119.451L117.997 119.47L117.44 119.529L115.264 119.758L107.074 120.649L78.5267 123.703L78.3948 123.717L78.3836 123.61C77.734 117.427 77.0231 110.66 76.2809 103.595L76.2693 103.484L76.3842 103.472L116.045 99.3319L116.13 99.323L116.139 99.4039C116.766 105.581 117.279 110.59 117.631 114.062C117.81 115.766 117.953 117.124 118.049 118.04C118.096 118.487 118.132 118.832 118.157 119.07C118.182 119.309 118.156 119.471 118.156 119.471Z" fill="#263238"/>
<path d="M72.8862 128.219L123.355 122.912L123.382 123.163C123.456 123.867 123.247 124.571 122.802 125.121C122.357 125.67 121.712 126.021 121.009 126.095L75.8474 130.844C74.3828 130.998 73.0708 129.935 72.9169 128.47L72.8905 128.218L72.8862 128.219Z" fill="#263238"/>
<g opacity="0.3">
<path opacity="0.3" d="M112.11 102.719C112.104 103.293 112.504 103.792 113.066 103.91C113.626 104.003 114.183 103.73 114.453 103.23C114.699 102.72 114.635 102.115 114.289 101.667C114.343 102.029 114.262 102.397 114.062 102.703C113.854 103.007 113.507 103.185 113.14 103.179C112.768 103.165 112.448 102.914 112.347 102.556" fill="black"/>
</g>
<path d="M114.333 102.006C114.385 102.483 114.144 102.945 113.722 103.175C113.301 103.405 112.782 103.358 112.409 103.056C112.035 102.753 111.881 102.255 112.019 101.795C112.156 101.334 112.557 101.002 113.035 100.954C113.684 100.885 114.265 101.356 114.333 102.006Z" fill="#E0E0E0"/>
<path d="M114.333 102.006C114.292 101.918 114.257 101.829 114.228 101.737C114.127 101.506 113.956 101.313 113.739 101.185C113.417 101.004 113.026 100.993 112.695 101.157C112.291 101.359 112.054 101.791 112.101 102.24C112.148 102.69 112.47 103.063 112.907 103.176C113.265 103.268 113.646 103.176 113.923 102.931C114.109 102.762 114.236 102.537 114.286 102.29C114.296 102.195 114.312 102.1 114.333 102.006C114.333 102.006 114.383 102.108 114.365 102.304C114.342 102.586 114.217 102.851 114.012 103.047C113.705 103.354 113.26 103.479 112.838 103.377C112.314 103.247 111.927 102.802 111.87 102.265C111.814 101.727 112.1 101.212 112.585 100.975C112.977 100.788 113.438 100.818 113.803 101.054C114.044 101.203 114.221 101.436 114.302 101.708C114.36 101.895 114.346 102.004 114.333 102.006Z" fill="#263238"/>
<path d="M113.647 101.572C113.674 101.629 113.413 101.803 113.182 102.103C112.951 102.403 112.844 102.694 112.782 102.679C112.72 102.664 112.743 102.309 113.008 101.962C113.273 101.616 113.628 101.514 113.647 101.572Z" fill="#263238"/>
<path d="M113.738 102.44C113.691 102.479 113.472 102.287 113.163 102.126C112.853 101.964 112.57 101.887 112.576 101.821C112.582 101.756 112.916 101.738 113.267 101.929C113.618 102.121 113.786 102.409 113.738 102.44Z" fill="#263238"/>
<g opacity="0.3">
<path opacity="0.3" d="M114.189 117.222C114.187 117.797 114.588 118.294 115.149 118.413C115.709 118.506 116.266 118.233 116.537 117.733C116.788 117.228 116.733 116.624 116.394 116.173C116.448 116.533 116.365 116.901 116.163 117.204C115.956 117.507 115.611 117.686 115.244 117.68C114.873 117.669 114.551 117.419 114.448 117.062" fill="black"/>
</g>
<path d="M115.365 117.805C116.014 117.737 116.484 117.156 116.416 116.506C116.348 115.857 115.767 115.386 115.118 115.455C114.469 115.523 113.999 116.104 114.067 116.753C114.135 117.403 114.716 117.874 115.365 117.805Z" fill="#E0E0E0"/>
<path d="M116.417 116.509C116.395 116.511 116.38 116.41 116.307 116.241C116.207 116.009 116.036 115.816 115.818 115.689C115.496 115.509 115.105 115.498 114.774 115.661C114.4 115.856 114.172 116.249 114.188 116.67C114.205 117.091 114.464 117.465 114.852 117.629C115.24 117.793 115.688 117.717 116.002 117.435C116.189 117.267 116.317 117.042 116.365 116.794C116.402 116.618 116.395 116.511 116.417 116.509C116.438 116.507 116.466 116.612 116.448 116.807C116.425 117.091 116.3 117.356 116.096 117.555C115.787 117.859 115.343 117.983 114.921 117.881C114.397 117.75 114.01 117.306 113.954 116.768C113.897 116.231 114.183 115.715 114.669 115.479C115.062 115.298 115.52 115.328 115.886 115.557C116.127 115.707 116.305 115.939 116.385 116.211C116.444 116.403 116.43 116.512 116.417 116.509Z" fill="#263238"/>
<path d="M115.729 116.069C115.757 116.126 115.491 116.301 115.264 116.6C115.038 116.899 114.926 117.191 114.861 117.181C114.795 117.17 114.821 116.806 115.087 116.464C115.352 116.121 115.711 116.015 115.729 116.069Z" fill="#263238"/>
<path d="M115.821 116.94C115.769 116.984 115.551 116.787 115.241 116.626C114.932 116.465 114.652 116.387 114.658 116.321C114.664 116.256 114.994 116.239 115.35 116.429C115.705 116.62 115.869 116.909 115.821 116.94Z" fill="#263238"/>
<g opacity="0.3">
<path opacity="0.3" d="M78.4435 106.242C78.441 106.817 78.8419 107.314 79.4035 107.433C79.9642 107.523 80.5206 107.249 80.7905 106.749C81.0344 106.24 80.9711 105.637 80.6268 105.19C80.6807 105.552 80.5983 105.922 80.3956 106.226C80.1887 106.529 79.8438 106.708 79.4773 106.702C79.1045 106.69 78.7821 106.439 78.6803 106.08" fill="black"/>
</g>
<path d="M79.6158 106.829C80.2647 106.761 80.7353 106.179 80.6671 105.53C80.599 104.881 80.0177 104.41 79.3689 104.478C78.7201 104.546 78.2494 105.128 78.3176 105.777C78.3858 106.426 78.967 106.897 79.6158 106.829Z" fill="#E0E0E0"/>
<path d="M80.6712 105.529C80.6712 105.529 80.6345 105.425 80.5613 105.261C80.4638 105.028 80.2921 104.834 80.073 104.709C79.7525 104.527 79.3627 104.517 79.0329 104.681C78.6284 104.882 78.3917 105.314 78.4389 105.764C78.4861 106.213 78.8074 106.586 79.2449 106.699C79.6031 106.79 79.9831 106.699 80.2607 106.455C80.4483 106.286 80.5758 106.061 80.6237 105.814C80.6611 105.638 80.6542 105.531 80.6755 105.528C80.715 105.623 80.7259 105.726 80.7068 105.827C80.6825 106.109 80.5574 106.372 80.3545 106.57C80.0465 106.876 79.6022 107.001 79.1799 106.9C78.6556 106.77 78.2689 106.325 78.2125 105.787C78.156 105.25 78.4419 104.735 78.9276 104.498C79.3197 104.312 79.7803 104.341 80.1451 104.577C80.3846 104.728 80.5618 104.96 80.6442 105.23C80.6824 105.325 80.6918 105.429 80.6712 105.529Z" fill="#263238"/>
<path d="M79.9843 105.096C79.9906 105.155 79.7461 105.327 79.5194 105.627C79.2926 105.926 79.1812 106.218 79.1152 106.203C79.0491 106.189 79.0758 105.828 79.3411 105.486C79.6064 105.144 79.9671 105.054 79.9843 105.096Z" fill="#263238"/>
<path d="M80.0755 105.963C80.0237 106.003 79.8056 105.811 79.496 105.65C79.1864 105.488 78.9071 105.41 78.9131 105.345C78.9192 105.28 79.2487 105.262 79.604 105.449C79.9593 105.635 80.1234 105.928 80.0755 105.963Z" fill="#263238"/>
<g opacity="0.3">
<path opacity="0.3" d="M79.7134 120.707C79.7052 121.282 80.1062 121.781 80.6691 121.898C81.2291 121.99 81.7863 121.717 82.0565 121.218C82.3025 120.71 82.2391 120.106 81.8928 119.659C81.9458 120.019 81.865 120.386 81.6655 120.691C81.4579 120.995 81.1117 121.176 80.7433 121.171C80.372 121.158 80.0518 120.906 79.9506 120.548" fill="black"/>
</g>
<path d="M80.8852 121.29C81.5341 121.221 82.0048 120.64 81.9366 119.991C81.8684 119.342 81.2871 118.871 80.6383 118.939C79.9895 119.007 79.5188 119.589 79.587 120.238C79.6552 120.887 80.2364 121.358 80.8852 121.29Z" fill="#E0E0E0"/>
<path d="M81.9363 119.985C81.9363 119.985 81.9255 119.883 81.8306 119.716C81.728 119.487 81.5576 119.294 81.3423 119.165C81.0202 118.983 80.6292 118.973 80.2979 119.137C79.9238 119.331 79.6957 119.724 79.7124 120.146C79.7291 120.567 79.9878 120.941 80.3761 121.104C80.7644 121.268 81.2124 121.193 81.5257 120.911C81.7114 120.741 81.8385 120.517 81.8887 120.27C81.8992 120.174 81.9151 120.079 81.9363 119.985C81.9363 119.985 81.9857 120.088 81.9676 120.283C81.9455 120.567 81.8204 120.833 81.6157 121.031C81.3048 121.332 80.8633 121.456 80.4411 121.361C79.914 121.233 79.5243 120.787 79.4676 120.247C79.4108 119.707 79.6994 119.19 80.1884 118.955C80.5815 118.774 81.0392 118.804 81.4059 119.033C81.6472 119.184 81.8248 119.418 81.9054 119.691C81.9638 119.879 81.9495 119.988 81.9363 119.985Z" fill="#263238"/>
<path d="M81.2497 119.556C81.256 119.615 81.0158 119.787 80.7848 120.087C80.5538 120.386 80.4467 120.678 80.3853 120.667C80.3239 120.656 80.3459 120.292 80.6112 119.95C80.8765 119.608 81.2307 119.497 81.2497 119.556Z" fill="#263238"/>
<path d="M81.3394 120.405C81.2919 120.444 81.0732 120.248 80.7637 120.086C80.4541 119.925 80.1705 119.847 80.1766 119.782C80.1826 119.717 80.5164 119.699 80.8679 119.89C81.2193 120.082 81.3904 120.399 81.3394 120.405Z" fill="#263238"/>
<path d="M103.85 95.2535C104.16 95.0444 113.401 90.9598 113.401 90.9598L104.795 97.0314L103.85 95.2535Z" fill="#FF725E"/>
<path d="M102.746 94.3239C101.888 94.4141 101.101 94.8416 100.558 95.5124C100.015 96.1831 99.7609 97.0422 99.8511 97.9005L106.321 97.2202C106.231 96.3618 105.803 95.5745 105.133 95.0313C104.463 94.4881 103.604 94.2337 102.746 94.3239Z" fill="#263238"/>
<path d="M73.4185 128.171C73.3546 128.178 72.2153 117.783 70.8678 104.957C69.5203 92.1301 68.4742 81.7216 68.538 81.7149C68.6019 81.7082 69.7412 92.1026 71.0891 104.933C72.4371 117.764 73.478 128.165 73.4185 128.171Z" fill="#263238"/>
<path d="M124.006 122.843C123.943 122.85 122.803 112.455 121.456 99.6286C120.108 86.802 119.062 76.3935 119.126 76.3868C119.19 76.3801 120.329 86.7745 121.677 99.6054C123.025 112.436 124.066 122.837 124.006 122.843Z" fill="#263238"/>
<path d="M67.1187 88.6362C67.6158 88.5839 67.9765 88.1383 67.9242 87.641C67.872 87.1436 67.4266 86.7828 66.9294 86.835C66.4323 86.8873 66.0717 87.3329 66.1239 87.8303C66.1762 88.3276 66.6215 88.6885 67.1187 88.6362Z" fill="#263238"/>
<path d="M68.0972 97.9565C68.5943 97.9042 68.955 97.4586 68.9027 96.9613C68.8505 96.4639 68.4051 96.1031 67.908 96.1553C67.4108 96.2076 67.0502 96.6532 67.1024 97.1506C67.1547 97.648 67.6 98.0088 68.0972 97.9565Z" fill="#263238"/>
<path d="M69.0764 107.277C69.5736 107.225 69.9342 106.779 69.882 106.282C69.8297 105.784 69.3844 105.423 68.8872 105.476C68.3901 105.528 68.0294 105.974 68.0817 106.471C68.1339 106.968 68.5793 107.329 69.0764 107.277Z" fill="#263238"/>
<path d="M70.0557 116.597C70.5528 116.545 70.9135 116.099 70.8612 115.602C70.809 115.105 70.3636 114.744 69.8665 114.796C69.3693 114.848 69.0087 115.294 69.0609 115.791C69.1132 116.289 69.5585 116.649 70.0557 116.597Z" fill="#263238"/>
<path d="M71.0349 125.917C71.5321 125.865 71.8927 125.42 71.8405 124.922C71.7882 124.425 71.3428 124.064 70.8457 124.116C70.3486 124.169 69.9879 124.614 70.0402 125.112C70.0924 125.609 70.5378 125.97 71.0349 125.917Z" fill="#263238"/>
<path d="M122.432 82.8237C122.929 82.7714 123.289 82.3258 123.237 81.8285C123.185 81.3311 122.739 80.9703 122.242 81.0225C121.745 81.0748 121.385 81.5204 121.437 82.0178C121.489 82.5151 121.934 82.876 122.432 82.8237Z" fill="#263238"/>
<path d="M123.41 92.144C123.907 92.0917 124.268 91.6461 124.216 91.1488C124.164 90.6514 123.718 90.2906 123.221 90.3428C122.724 90.3951 122.363 90.8407 122.416 91.3381C122.468 91.8355 122.913 92.1963 123.41 92.144Z" fill="#263238"/>
<path d="M124.39 101.464C124.887 101.412 125.248 100.966 125.195 100.469C125.143 99.9717 124.698 99.6109 124.201 99.6632C123.704 99.7154 123.343 100.161 123.395 100.658C123.447 101.156 123.893 101.517 124.39 101.464Z" fill="#263238"/>
<path d="M125.369 110.785C125.866 110.732 126.227 110.287 126.174 109.789C126.122 109.292 125.677 108.931 125.18 108.983C124.682 109.036 124.322 109.481 124.374 109.979C124.426 110.476 124.872 110.837 125.369 110.785Z" fill="#263238"/>
<path d="M126.348 120.105C126.845 120.053 127.205 119.607 127.153 119.11C127.101 118.612 126.656 118.252 126.158 118.304C125.661 118.356 125.301 118.802 125.353 119.299C125.405 119.796 125.851 120.157 126.348 120.105Z" fill="#263238"/>
<path d="M102.042 72.705L80.2913 74.9922L80.8299 80.1194L102.581 77.8323L102.042 72.705Z" fill="#455A64"/>
<path d="M82.4047 79.9551C82.2066 79.1458 82.0824 78.3201 82.0337 77.4883C81.9086 76.6659 81.8586 75.8339 81.8844 75.0025C82.0799 75.8108 82.2039 76.6349 82.255 77.465C82.3776 78.2891 82.4277 79.1223 82.4047 79.9551Z" fill="#263238"/>
<path d="M84.6315 79.7287C84.4359 78.9189 84.3117 78.0934 84.2604 77.2619C84.1378 76.4393 84.0879 75.6074 84.1112 74.776C84.3091 75.5839 84.4332 76.4082 84.4818 77.2386C84.6069 78.0624 84.657 78.8958 84.6315 79.7287Z" fill="#263238"/>
<path d="M86.8658 79.4943C86.6702 78.6845 86.5461 77.859 86.4948 77.0275C86.3722 76.2049 86.3223 75.3731 86.3455 74.5417C86.5411 75.35 86.6651 76.1741 86.7161 77.0042C86.8388 77.8283 86.8888 78.6615 86.8658 79.4943Z" fill="#263238"/>
<path d="M89.1004 79.252C88.9023 78.4427 88.7781 77.617 88.7293 76.7852C88.6043 75.9628 88.5543 75.1308 88.5801 74.2993C88.7756 75.1077 88.8996 75.9317 88.9507 76.7619C89.0733 77.5859 89.1234 78.4192 89.1004 79.252Z" fill="#263238"/>
<path d="M91.344 79.0178C91.1484 78.2079 91.0242 77.3825 90.9729 76.5509C90.8504 75.7283 90.8004 74.8965 90.8237 74.0651C91.0217 74.873 91.1457 75.6973 91.1943 76.5277C91.3195 77.3514 91.3696 78.1849 91.344 79.0178Z" fill="#263238"/>
<path d="M93.5655 78.7834C93.37 77.9736 93.2458 77.1481 93.1945 76.3166C93.0719 75.4939 93.022 74.6621 93.0452 73.8307C93.2408 74.6391 93.3648 75.4631 93.4158 76.2933C93.5385 77.1173 93.5886 77.9506 93.5655 78.7834Z" fill="#263238"/>
<path d="M95.8002 78.5489C95.6021 77.7395 95.4779 76.9139 95.4292 76.082C95.3041 75.2597 95.2541 74.4276 95.2799 73.5962C95.4754 74.4046 95.5995 75.2286 95.6505 76.0588C95.7731 76.8828 95.8232 77.716 95.8002 78.5489Z" fill="#263238"/>
<path d="M98.0305 78.3146C97.8349 77.5048 97.7108 76.6794 97.6595 75.8478C97.5369 75.0252 97.4869 74.1934 97.5102 73.362C97.7082 74.1699 97.8322 74.9941 97.8808 75.8245C98.006 76.6483 98.0561 77.4818 98.0305 78.3146Z" fill="#263238"/>
<path d="M100.282 78.0803C100.087 77.2704 99.9627 76.445 99.9114 75.6134C99.7888 74.7908 99.7389 73.959 99.7622 73.1276C99.9577 73.936 100.082 74.76 100.133 75.5902C100.255 76.4142 100.305 77.2474 100.282 78.0803Z" fill="#263238"/>
<path d="M63.4137 87.0057C63.4733 86.9995 64.2494 94.9607 65.1307 104.784C66.012 114.607 66.694 122.573 66.6302 122.58C66.5663 122.587 65.7949 114.63 64.9089 104.803C64.0229 94.9759 63.3498 87.0125 63.4137 87.0057Z" fill="white"/>
<path d="M76.5128 122.631C76.4489 122.638 75.986 118.683 75.4729 113.798C74.9598 108.914 74.5905 104.948 74.6544 104.941C74.7182 104.935 75.1811 108.89 75.6942 113.775C76.2074 118.659 76.5596 122.626 76.5128 122.631Z" fill="white"/>
<path d="M114.096 78.0743C114.103 78.1381 104.347 79.2113 92.3143 80.4766C80.2813 81.7419 70.5163 82.7214 70.5096 82.6576C70.5028 82.5937 80.2538 81.521 92.2911 80.2552C104.328 78.9895 114.09 78.0147 114.096 78.0743Z" fill="white"/>
<path d="M109.361 46.8281L109.924 46.7711C113.204 46.4383 116.133 48.8292 116.466 52.1114L116.629 53.7174C116.961 56.9996 114.572 59.9301 111.291 60.2629L110.729 60.3199L109.361 46.8281Z" fill="#455A64"/>
<path d="M110.724 60.3215L109.357 46.8168L109.917 46.7579C111.489 46.5945 113.061 47.0634 114.287 48.0612L114.304 48.0747C115.536 49.0748 116.318 50.5257 116.477 52.1054L116.64 53.714C116.969 57.0016 114.577 59.9355 111.292 60.2741L110.724 60.3215ZM109.377 46.827L110.743 60.2982L111.294 60.2433C114.568 59.9092 116.952 56.9852 116.621 53.7099L116.458 52.1013C116.303 50.5269 115.525 49.0801 114.296 48.0846L114.279 48.0711C113.064 47.0747 111.502 46.6025 109.939 46.7587L109.377 46.827Z" fill="#263238"/>
<path d="M70.5319 64.1406L69.9681 64.1771C66.6775 64.39 63.8375 61.8938 63.6247 58.6017L63.5206 56.9907C63.3071 53.6868 65.811 50.8353 69.1134 50.6216L69.6558 50.5865L70.5319 64.1406Z" fill="#455A64"/>
<path d="M65.821 62.8767L65.6281 62.7204C64.4336 61.6757 63.7054 60.1972 63.6051 58.613L63.503 57.0041C63.2949 53.7077 65.7912 50.864 69.0853 50.6447L69.663 50.6114L70.5379 64.1526L69.9628 64.1826C68.4669 64.2868 66.987 63.8202 65.821 62.8767ZM69.102 50.6582C67.5166 50.754 66.0351 51.4787 64.9858 52.6716C63.9366 53.8644 63.4065 55.4268 63.513 57.0122L63.6184 58.6238C63.717 60.2036 64.4428 61.6783 65.6341 62.7198L65.8237 62.8734C66.9851 63.8178 68.4609 64.287 69.9541 64.1866L70.5238 64.1632L69.6521 50.6521L69.102 50.6582Z" fill="#263238"/>
<path d="M72.7936 37.752L71.7474 37.9766L73.6052 46.6388L74.6513 46.4142L72.7936 37.752Z" fill="#455A64"/>
<path d="M74.2483 36.6643C74.434 37.5279 74.0814 38.4183 73.3549 38.9203C72.6285 39.4224 71.6712 39.4371 70.9297 38.9577C70.1881 38.4783 69.8083 37.5991 69.9673 36.7302C70.1263 35.8613 70.7928 35.1738 71.6561 34.9884C72.8335 34.7402 73.9907 35.4883 74.2483 36.6643Z" fill="#263238"/>
<path d="M102.558 43.1723L74.3783 46.036C70.4981 46.4303 67.6721 49.897 68.0662 53.7791L69.8758 71.6031C70.27 75.4852 73.735 78.3126 77.6152 77.9182L105.795 75.0545C109.675 74.6602 112.501 71.1935 112.107 67.3114L110.297 49.4874C109.903 45.6053 106.438 42.7779 102.558 43.1723Z" fill="#ADB7C4"/>
<path d="M103.346 43.0949L104.881 39.6941L102.713 38.4607L103.801 35.9868L104.542 36.3504L103.785 38.1775L105.904 39.4648L104.373 42.99L103.346 43.0949Z" fill="#455A64"/>
<path d="M101.132 48.1235L76.7723 50.599C73.4894 50.9327 71.0985 53.8657 71.4319 57.1502L71.5465 58.2791C71.88 61.5635 74.8116 63.9556 78.0945 63.622L102.455 61.1464C105.738 60.8128 108.129 57.8798 107.795 54.5953L107.68 53.4664C107.347 50.182 104.415 47.7898 101.132 48.1235Z" fill="#263238"/>
<path d="M75.1273 61.8675C75.1041 61.8939 74.6047 61.7649 73.9734 61.1509C72.2263 59.4693 71.868 56.2422 73.1662 53.8796C73.6472 53.0141 74.114 52.7494 74.1353 52.7686C74.1566 52.7878 73.6154 53.3084 73.2648 54.142C72.8001 55.225 72.6154 56.4632 72.7283 57.6758C72.8884 58.8926 73.2595 60.0077 73.9561 60.8288C74.4273 61.4731 75.1273 61.8675 75.1273 61.8675Z" fill="white"/>
<path d="M102.193 63.0033C102.193 63.0033 102.276 62.9824 102.437 62.9533C102.681 62.9186 102.923 62.8698 103.161 62.8071C104.081 62.5905 104.949 62.1951 105.717 61.6433C106.269 61.2464 106.769 60.7816 107.205 60.2598C107.709 59.6272 108.113 58.9215 108.404 58.1671C108.735 57.2987 108.899 56.3755 108.888 55.4461L108.845 54.6956L108.764 53.9247C108.722 53.3923 108.642 52.8635 108.525 52.3424C108.263 51.2224 107.75 50.1769 107.023 49.2853C106.218 48.3405 105.194 47.6059 104.041 47.145C103.435 46.9065 102.801 46.748 102.154 46.6737C101.484 46.6074 100.81 46.6151 100.142 46.6965L95.9115 47.1261L77.0458 49.049C75.4006 49.2158 73.8575 49.9254 72.6597 51.066C72.0816 51.6233 71.5938 52.2672 71.2139 52.9747C70.6721 54.0247 70.3806 55.186 70.3622 56.3675C70.3726 56.7561 70.3851 57.1354 70.4322 57.5262C70.477 58.2901 70.5893 59.0485 70.7677 59.7926C71.5395 62.6466 73.9294 64.771 76.853 65.2021C77.1917 65.2562 77.5336 65.2884 77.8765 65.2984C78.2134 65.2904 78.5416 65.2863 78.8781 65.2449L80.8478 65.0499L88.0309 64.3403L98.4222 63.3206L101.223 63.0718L101.959 63.0066C102.122 62.9955 102.21 62.9954 102.21 62.9954C102.21 62.9954 102.126 63.0103 101.961 63.0307L101.225 63.1173L98.4056 63.4228L88.0185 64.5121L80.8452 65.2572L78.8795 65.4609C78.5451 65.493 78.1994 65.505 77.8598 65.5163C77.5129 65.511 77.1666 65.4844 76.8229 65.4366C73.8195 64.9973 71.3615 62.8198 70.5619 59.8903C70.3838 59.1349 70.2694 58.3658 70.22 57.5912C70.1734 57.2064 70.1618 56.8057 70.1367 56.4217C70.1456 56.0211 70.182 55.6216 70.2454 55.226C70.3739 54.4224 70.6313 53.6448 71.0077 52.9233C71.398 52.1937 71.9002 51.5296 72.4959 50.9554C73.7228 49.7793 75.3066 49.0461 76.9967 48.8715L95.867 46.9634L100.104 46.5391C100.787 46.4558 101.477 46.4475 102.162 46.5146C105.34 46.8774 107.948 49.196 108.683 52.3105C108.8 52.8399 108.879 53.377 108.919 53.9176L108.994 54.6891L109.054 55.4378C109.053 56.3881 108.872 57.3295 108.521 58.2126C108.223 58.9774 107.806 59.6902 107.285 60.3246C106.839 60.8503 106.329 61.3181 105.767 61.7171C104.991 62.2665 104.113 62.6568 103.185 62.8654C102.945 62.922 102.701 62.9619 102.456 62.9848L102.193 63.0033Z" fill="#263238"/>
<path d="M103.356 36.4328C104.304 37.1771 105.676 37.0113 106.42 36.0623C107.164 35.1133 106.998 33.7406 106.05 32.9962C105.101 32.2519 103.729 32.4177 102.985 33.3667C102.241 34.3157 102.407 35.6884 103.356 36.4328Z" fill="#263238"/>
<path d="M78.5452 77.8285C78.4952 77.6726 78.463 77.5115 78.4491 77.3484C78.3981 77.0372 78.3386 76.5867 78.2651 76.0312C78.1212 74.9229 77.9379 73.3804 77.7535 71.6827C77.569 69.985 77.4131 68.4426 77.3168 67.3232C77.233 66.722 77.2068 66.1141 77.2386 65.5078C77.2709 65.6673 77.295 65.8284 77.3106 65.9904L77.4733 67.3068C77.6241 68.4813 77.7822 69.9869 77.9729 71.6566C78.1635 73.3262 78.3166 74.8994 78.4216 76.0148L78.5334 77.3396C78.5571 77.5015 78.5611 77.6656 78.5452 77.8285Z" fill="#263238"/>
<path d="M104.702 74.9787C104.651 74.8231 104.619 74.6619 104.606 74.4987C104.558 74.1901 104.496 73.743 104.423 73.1875C104.278 72.0732 104.095 70.5367 103.908 68.8363C103.72 67.1359 103.57 65.5929 103.477 64.4762C103.393 63.876 103.366 63.2693 103.396 62.6641C103.433 62.8218 103.458 62.982 103.471 63.1433L103.634 64.4597L104.13 68.8128C104.318 70.5132 104.477 72.0523 104.582 73.1677L104.694 74.4925C104.718 74.6534 104.721 74.817 104.702 74.9787Z" fill="#263238"/>
<path d="M101.642 64.6751L79.464 67.1875L79.7394 69.6212L101.918 67.1088L101.642 64.6751Z" fill="#263238"/>
<path d="M75.9884 68.1193C75.8622 68.2656 75.6596 68.32 75.4772 68.2567C75.2948 68.1933 75.1696 68.0251 75.1612 67.8321C75.1527 67.6391 75.2629 67.4604 75.4391 67.3813C75.6152 67.3022 75.8218 67.3387 75.9602 67.4733C76.1411 67.6463 76.1536 67.9312 75.9884 68.1193Z" fill="#263238"/>
<path d="M76.3895 73.2989C76.213 73.4678 75.9366 73.4735 75.7532 73.312C75.5699 73.1506 75.5404 72.8756 75.6854 72.6789C75.862 72.5101 76.1384 72.5044 76.3217 72.6658C76.5051 72.8273 76.5346 73.1023 76.3895 73.2989Z" fill="#263238"/>
<path d="M105.736 64.7197C105.561 64.8999 105.276 64.9112 105.087 64.7454C104.944 64.6397 104.873 64.4622 104.903 64.2866C104.933 64.1111 105.059 63.9674 105.229 63.9153C105.4 63.8632 105.585 63.9116 105.708 64.0403C105.806 64.1238 105.865 64.2447 105.871 64.3737C105.876 64.5027 105.827 64.6282 105.736 64.7197Z" fill="#263238"/>
<path d="M106.15 69.9038C106.04 70.0292 105.871 70.0862 105.708 70.0533C105.544 70.0204 105.41 69.9026 105.357 69.7444C105.304 69.5862 105.339 69.4115 105.449 69.2861C105.559 69.1607 105.728 69.1038 105.892 69.1367C106.055 69.1695 106.189 69.2873 106.242 69.4455C106.296 69.6038 106.261 69.7785 106.15 69.9038Z" fill="#263238"/>
<path d="M64.9771 59.8431C64.9299 59.4045 64.8577 58.9689 64.761 58.5385C64.6704 58.14 64.5268 57.6711 64.4358 57.1235C64.3315 56.5274 64.3502 55.9162 64.4906 55.3276C64.749 54.2532 65.3673 53.2996 66.2425 52.6256C66.5038 52.4245 66.7902 52.2583 67.0943 52.1311C67.3141 52.0501 67.4346 52.01 67.4392 52.0248C67.0573 52.2414 66.6903 52.4834 66.3407 52.7492C65.5295 53.428 64.9575 54.3493 64.7089 55.3777C64.3915 56.5862 64.7733 57.6999 64.9255 58.512C65.0423 58.9463 65.0599 59.4012 64.9771 59.8431Z" fill="white"/>
<path d="M101.11 44.7832C101.116 44.8434 94.8244 45.4654 87.0625 46.1689C79.3006 46.8725 72.9922 47.3928 72.9859 47.3325C72.9796 47.2723 79.2759 46.6376 87.0391 45.9461C94.8023 45.2546 101.103 44.7229 101.11 44.7832Z" fill="white"/>
<path d="M70.7794 38.0274C70.7633 38.0473 70.6065 37.8872 70.5048 37.5569C70.2201 36.6476 70.7123 35.677 71.614 35.37C71.9462 35.259 72.1626 35.291 72.1624 35.3185C72.1623 35.3459 71.9589 35.3795 71.678 35.5155C71.3099 35.69 71.0074 35.9779 70.8149 36.337C70.6379 36.7094 70.588 37.1296 70.6728 37.5332C70.7131 37.8304 70.8276 38.0223 70.7794 38.0274Z" fill="white"/>
<path d="M103.307 35.6357C103.291 35.6557 103.118 35.4821 103.019 35.1211C102.892 34.6476 102.965 34.1426 103.222 33.725C103.478 33.3074 103.896 33.0141 104.376 32.9142C104.742 32.8422 104.972 32.9124 104.968 32.9371C104.965 32.9619 104.743 32.9639 104.43 33.0516C103.55 33.3085 103.007 34.1883 103.171 35.0899C103.227 35.4219 103.339 35.6172 103.307 35.6357Z" fill="white"/>
<path d="M113.74 48.5021C113.226 48.1872 112.683 47.9212 112.12 47.7074C111.535 47.5636 110.939 47.4734 110.339 47.438C110.941 47.2472 111.59 47.2647 112.182 47.4877C112.799 47.6431 113.348 48 113.74 48.5021Z" fill="white"/>
<path d="M71.1804 72.8401C70.9367 71.3633 70.7682 69.8751 70.6754 68.3813C70.4654 65.9191 70.3336 63.9114 70.3972 63.9077C70.4607 63.9041 70.6821 65.8963 70.8988 68.3639C71.1154 70.8315 71.2406 72.8338 71.1804 72.8401Z" fill="white"/>
<path opacity="0.3" d="M75.2081 129.99C75.1006 130.726 74.4228 131.351 73.6942 131.385L66.4516 131.726L67.2303 126.392L74.4553 126.053C74.8135 126.031 75.137 126.157 75.3516 126.401C75.5662 126.646 75.6535 126.988 75.5936 127.35L75.2081 129.99Z" fill="black"/>
<path d="M74.3047 135.479L74.042 137.31C73.9805 137.739 73.5836 138.036 73.1554 137.975L65.6652 136.899L66.1518 133.508L73.6377 134.583C74.0659 134.645 74.3632 135.042 74.3017 135.47L74.3047 135.479Z" fill="#ADB7C4"/>
<g opacity="0.3">
<path opacity="0.3" d="M74.3047 135.472L74.042 137.303C73.9805 137.731 73.5836 138.028 73.1554 137.967L65.6652 136.891L66.1518 133.5L73.6377 134.576C74.0659 134.637 74.3632 135.034 74.3017 135.463L74.3047 135.472Z" fill="black"/>
</g>
<path d="M75.2299 128.992L74.8686 131.51C74.7678 132.212 74.1171 132.7 73.4152 132.599L66.4377 131.597L67.1675 126.511L74.1281 127.51C74.4732 127.555 74.7854 127.738 74.9931 128.018C75.2008 128.297 75.2862 128.649 75.2299 128.992Z" fill="#BABEC7"/>
<path d="M68.9225 137.361L70.1627 128.719L66.9006 128.25L65.6604 136.893L68.9225 137.361Z" fill="#BABEC7"/>
<path fill-rule="evenodd" clip-rule="evenodd" d="M60.061 103.692C60.061 103.692 46.5197 105.675 49.0133 118.597C50.9137 128.494 65.7825 127.02 65.7825 127.02L62.8576 135.72C62.8576 135.72 45.3494 136.032 40.5951 123.753C35.2254 109.877 42.949 97.2891 59.2374 95.8519L60.061 103.692Z" fill="#ADB7C4"/>
<path d="M61.8673 137.01L67.1577 137.609L68.4906 125.832L63.2002 125.233L61.8673 137.01Z" fill="#263238"/>
<path d="M63.1074 126.466C63.0971 126.368 64.2929 126.444 65.7273 126.621C66.6012 126.691 67.4674 126.836 68.3163 127.055C67.4438 127.054 66.5728 126.983 65.7118 126.842C64.9925 126.754 64.3422 126.667 63.8751 126.605L63.3193 126.517C63.2469 126.508 63.1758 126.491 63.1074 126.466Z" fill="#455A64"/>
<path d="M62.8696 128.59C62.8593 128.492 64.0509 128.569 65.4895 128.745C66.3623 128.812 67.2274 128.958 68.0742 129.18C67.2018 129.178 66.3309 129.107 65.4698 128.967C64.7504 128.879 64.1044 128.792 63.6331 128.73L63.0815 128.641C63.0087 128.635 62.9373 128.618 62.8696 128.59Z" fill="#455A64"/>
<path d="M62.5407 130.737C62.5299 130.635 63.7258 130.711 65.1393 130.894C66.0132 130.964 66.8794 131.109 67.7283 131.328C66.8558 131.327 65.9849 131.256 65.1238 131.115C64.4092 131.031 63.7589 130.945 63.2914 130.878L62.736 130.794L62.5407 130.737Z" fill="#455A64"/>
<path d="M62.3899 132.823C62.3796 132.725 63.5712 132.802 64.9886 132.98C65.8627 133.048 66.7291 133.193 67.5775 133.414C66.7051 133.413 65.8341 133.342 64.9731 133.201C64.2537 133.113 63.6077 133.026 63.1363 132.964L62.5848 132.876C62.5177 132.867 62.4521 132.849 62.3899 132.823Z" fill="#455A64"/>
<path d="M62.0617 134.823C62.0509 134.721 63.2425 134.798 64.6603 134.98C65.5342 135.05 66.4004 135.195 67.2493 135.414C66.3768 135.413 65.5059 135.342 64.6448 135.201C63.9259 135.118 63.2756 135.031 62.8081 134.964L62.2528 134.88C62.1879 134.865 62.1241 134.846 62.0617 134.823Z" fill="#455A64"/>
<path d="M56.275 96.2437C56.4437 96.6034 56.5768 96.9787 56.6724 97.3644C56.8838 98.0655 57.1493 99.0364 57.3938 100.134C57.6382 101.233 57.809 102.244 57.9093 102.952C57.9906 103.342 58.0322 103.738 58.0336 104.136C57.9079 103.76 57.8182 103.373 57.7659 102.98C57.626 102.263 57.4315 101.272 57.1879 100.182C56.9443 99.0924 56.7081 98.1141 56.5346 97.4047C56.4138 97.0261 56.3269 96.6376 56.275 96.2437Z" fill="#263238"/>
<path d="M52.1173 97.3537C52.7422 98.6338 53.2982 99.9465 53.7827 101.286C54.3393 102.599 54.8264 103.94 55.2421 105.305C54.6189 104.022 54.0629 102.708 53.5762 101.368C53.0219 100.056 52.535 98.7158 52.1173 97.3537Z" fill="#263238"/>
<path d="M46.6492 99.9868C46.9604 100.313 47.2436 100.665 47.4956 101.039C48.0358 101.757 48.7003 102.634 49.443 103.641L51.4024 106.234C51.69 106.58 51.9503 106.949 52.1809 107.336C51.8508 107.029 51.5491 106.694 51.2794 106.333C50.7472 105.691 50.0285 104.789 49.2891 103.774C48.5498 102.758 47.8573 101.819 47.3887 101.127C47.1105 100.769 46.8631 100.387 46.6492 99.9868Z" fill="#263238"/>
<path d="M42.2719 104.321C42.3095 104.27 44.1385 105.417 46.3648 106.905C48.5911 108.393 50.3699 109.635 50.3365 109.686C50.3031 109.737 48.4699 108.591 46.2436 107.103C44.0172 105.615 42.2389 104.377 42.2719 104.321Z" fill="#263238"/>
<path d="M39.7444 109.881C39.7637 109.819 41.8465 110.392 44.4009 111.153C46.9553 111.913 49.0093 112.58 48.9896 112.638C48.9699 112.696 46.8874 112.127 44.3373 111.366C41.7871 110.605 39.7312 109.96 39.7444 109.881Z" fill="#263238"/>
<path d="M38.8357 115.734C39.3177 115.695 39.8018 115.69 40.2845 115.719L43.7684 115.783L47.2567 115.847C47.7392 115.831 48.2223 115.853 48.7012 115.915C48.2228 115.984 47.7395 116.015 47.2562 116.007C46.3637 116.032 45.1296 116.041 43.7671 116.016C42.4046 115.991 41.1774 115.944 40.2764 115.888C39.7927 115.877 39.3107 115.826 38.8357 115.734Z" fill="#263238"/>
<path d="M40.1563 121.544C40.5493 121.32 40.9618 121.133 41.3885 120.983C42.1684 120.665 43.2617 120.257 44.4854 119.861C45.709 119.466 46.8344 119.158 47.6527 118.96C48.0896 118.833 48.5373 118.747 48.99 118.703C48.567 118.871 48.1328 119.008 47.6906 119.115C46.8847 119.351 45.7744 119.678 44.555 120.073C43.3356 120.469 42.2396 120.851 41.4472 121.132C41.0273 121.3 40.5959 121.438 40.1563 121.544Z" fill="#263238"/>
<path d="M42.4605 127.014C42.4292 126.961 44.1485 125.794 46.305 124.405C48.4614 123.016 50.2369 121.934 50.2725 121.986C50.3081 122.038 48.5846 123.205 46.4281 124.594C44.2717 125.984 42.4957 127.062 42.4605 127.014Z" fill="#263238"/>
<path d="M46.4617 131.22C46.4185 131.177 47.7897 129.647 49.5448 127.796C51.2998 125.945 52.726 124.486 52.7692 124.529C52.8124 124.572 51.4454 126.102 49.6861 127.953C47.9268 129.805 46.4922 131.264 46.4617 131.22Z" fill="#263238"/>
<path d="M52.7229 134.001C52.6687 133.976 53.4506 132.202 54.4561 130.016C55.0373 128.685 55.6879 127.385 56.4053 126.122C56.4595 126.146 55.6776 127.92 54.6725 130.11C54.089 131.439 53.4383 132.738 52.7229 134.001Z" fill="#263238"/>
<path d="M58.2453 135.571C58.4508 134.113 58.7298 132.667 59.0812 131.238C59.5972 128.858 60.0671 126.94 60.1242 126.952C59.9217 128.411 59.6428 129.859 59.2888 131.289C59.0148 132.733 58.6665 134.162 58.2453 135.571Z" fill="#263238"/>
<g opacity="0.3">
<path opacity="0.3" d="M49.295 111.811C50.0721 109.499 51.6262 107.528 53.6926 106.234C54.692 105.561 55.7659 105.006 56.8928 104.58C54.1462 103.465 50.8368 104.653 48.7611 106.77C46.6854 108.887 45.7982 111.994 46.0274 114.954C46.1072 116.362 46.5059 117.733 47.1933 118.964C47.9064 120.181 49.0036 121.409 50.3296 121.864C49.8805 121.202 49.5343 120.477 49.303 119.711C48.4903 117.141 48.4875 114.383 49.295 111.811Z" fill="black"/>
</g>
<g opacity="0.3">
<path opacity="0.3" d="M59.79 103.725C59.0579 101.086 58.3577 98.6183 57.5992 96.0255C58.2608 95.9442 58.7063 95.8942 59.237 95.8409C59.5081 98.4101 59.79 101.111 60.0606 103.681L59.79 103.725Z" fill="black"/>
</g>
<path d="M173.573 110.981C174.37 111.826 175.069 112.76 175.655 113.764C176.167 114.808 176.559 115.907 176.823 117.039C176.847 116.691 176.812 116.341 176.721 116.005C176.554 115.182 176.266 114.388 175.868 113.648C175.471 112.909 174.97 112.231 174.38 111.635C174.151 111.372 173.878 111.151 173.573 110.981Z" fill="#FF855F"/>
<path d="M153.205 107.219L152.653 106.704C152.189 106.24 151.452 105.633 150.539 104.891C149.625 104.148 148.512 103.299 147.242 102.404C145.972 101.509 144.525 100.586 142.976 99.6858C141.428 98.7859 139.898 98.0066 138.493 97.3386C137.088 96.6706 135.794 96.1325 134.695 95.715C133.597 95.2975 132.697 94.9774 132.071 94.7872C131.781 94.7006 131.539 94.6264 131.348 94.5646C131.264 94.5335 131.177 94.5132 131.088 94.5043C131.165 94.5502 131.248 94.5861 131.334 94.611L132.039 94.88C132.655 95.098 133.545 95.4367 134.63 95.8774C135.715 96.318 136.995 96.8793 138.395 97.5427C139.796 98.206 141.303 99.0039 142.856 99.8992C144.409 100.794 145.832 101.718 147.112 102.59C148.392 103.462 149.514 104.301 150.432 105.03C151.35 105.758 152.092 106.352 152.593 106.779L153.172 107.242C153.238 107.308 153.311 107.366 153.39 107.414C153.337 107.342 153.274 107.276 153.205 107.219Z" fill="#FF855F"/>
<path d="M149.222 66.4117C149.194 66.3885 148.893 66.7967 148.355 67.4137C146.962 69.0294 145.279 70.3699 143.394 71.3659C142.992 71.5533 142.6 71.7624 142.221 71.9922C142.656 71.8911 143.076 71.7352 143.472 71.5283C144.446 71.0639 145.363 70.4913 146.208 69.8212C147.053 69.1495 147.817 68.3821 148.485 67.5343C148.778 67.194 149.026 66.8166 149.222 66.4117Z" fill="#FF855F"/>
<path d="M137.398 105.148C137.209 104.744 136.97 104.364 136.689 104.017C136.048 103.148 135.321 102.346 134.519 101.623C133.72 100.898 132.848 100.258 131.918 99.7118C131.544 99.4664 131.14 99.2685 130.717 99.1226C131.075 99.386 131.447 99.6307 131.83 99.8556C132.722 100.439 133.569 101.091 134.361 101.804C135.15 102.521 135.883 103.296 136.555 104.123C136.814 104.482 137.096 104.825 137.398 105.148Z" fill="#FF855F"/>
<path d="M141.71 107.492C141.646 107.529 142.174 108.476 142.499 109.756C142.823 111.036 142.828 112.117 142.902 112.117C143.087 110.477 142.663 108.826 141.71 107.478V107.492Z" fill="#FF855F"/>
<path d="M160.188 106.68C160.098 106.462 159.988 106.254 159.858 106.058C159.636 105.664 159.283 105.13 158.824 104.444C158.278 103.665 157.693 102.914 157.072 102.194C155.546 100.433 153.811 98.8647 151.907 97.5227C151.132 96.9752 150.328 96.4688 149.5 96.0058C148.791 95.6115 148.207 95.3146 147.789 95.1337C147.582 95.0245 147.365 94.9359 147.14 94.8693C147.331 95.0042 147.535 95.1206 147.748 95.2172C148.151 95.4259 148.721 95.7414 149.412 96.145C150.103 96.5485 150.914 97.0727 151.781 97.6943C153.648 99.0471 155.358 100.603 156.882 102.333C157.605 103.126 158.222 103.892 158.685 104.518C159.149 105.144 159.534 105.706 159.779 106.086C159.897 106.296 160.034 106.494 160.188 106.68Z" fill="#FF855F"/>
<path d="M91.0173 129.708C91.2811 130.985 91.6894 132.228 92.2344 133.413C92.8643 134.555 93.6213 135.623 94.4909 136.595C94.1561 136.393 93.8571 136.136 93.6063 135.835C92.9584 135.152 92.414 134.376 91.9906 133.535C91.5675 132.694 91.2673 131.797 91.099 130.87C91.0053 130.49 90.9776 130.097 91.0173 129.708Z" fill="#FF725E"/>
<path d="M75.2793 157.383C75.3422 157.304 75.395 157.217 75.4365 157.125L75.834 156.377C76.2019 155.74 76.646 154.764 77.1848 153.558C77.7235 152.352 78.3199 150.899 78.9208 149.262C79.5216 147.625 80.1015 145.788 80.6266 143.848C81.1517 141.907 81.5516 140.022 81.8672 138.305C82.1828 136.588 82.39 135.029 82.5232 133.716C82.6563 132.403 82.7418 131.335 82.7661 130.601C82.7755 130.261 82.7859 129.978 82.7972 129.752C82.8066 129.653 82.8032 129.552 82.7871 129.453C82.7598 129.55 82.7449 129.65 82.7429 129.751L82.6561 130.593C82.5991 131.325 82.4908 132.388 82.3285 133.693C82.1662 134.997 81.9298 136.548 81.6178 138.258C81.3059 139.969 80.8792 141.835 80.3605 143.779C79.8417 145.723 79.2551 147.534 78.6821 149.175C78.109 150.816 77.5253 152.276 77.003 153.483C76.4807 154.69 76.053 155.667 75.7361 156.334L75.4019 157.097C75.3495 157.187 75.3083 157.283 75.2793 157.383Z" fill="#FF725E"/>
<path d="M101.225 136.887C101.242 136.85 100.712 136.642 99.8875 136.238C97.733 135.197 95.7923 133.762 94.1658 132.007C93.8461 131.625 93.5059 131.261 93.1468 130.917C93.3826 131.359 93.6736 131.77 94.0128 132.139C94.7984 133.06 95.6851 133.888 96.6563 134.61C97.6292 135.33 98.6823 135.936 99.7945 136.414C100.248 136.634 100.729 136.793 101.225 136.887Z" fill="#FF725E"/>
<path d="M72.0824 139.383C72.4655 139.059 72.808 138.691 73.1024 138.285C73.8575 137.338 74.515 136.317 75.0651 135.237C75.6182 134.16 76.0588 133.029 76.38 131.862C76.5371 131.385 76.6343 130.89 76.6694 130.389C76.4881 130.854 76.3309 131.327 76.1987 131.808C75.8255 132.945 75.3657 134.052 74.8234 135.119C74.276 136.182 73.649 137.202 72.9478 138.17C72.634 138.556 72.345 138.961 72.0824 139.383Z" fill="#FF725E"/>
<path d="M70.7873 144.733C70.7283 144.673 69.8567 145.521 68.5641 146.245C67.2715 146.969 66.1021 147.288 66.1236 147.368C67.9541 147.092 69.6193 146.153 70.8024 144.729L70.7873 144.733Z" fill="#FF725E"/>
<path d="M83.8636 151.242C84.0172 151.028 84.1496 150.799 84.2591 150.559C84.5017 150.113 84.7996 149.46 85.1796 148.615C85.5957 147.632 85.962 146.629 86.2772 145.609C87.0443 143.11 87.5048 140.526 87.6487 137.915C87.7086 136.852 87.7126 135.786 87.6606 134.723C87.6138 133.813 87.5488 133.08 87.4728 132.575C87.4535 132.313 87.4084 132.054 87.3383 131.8C87.3236 132.062 87.3337 132.325 87.3685 132.585C87.4098 133.093 87.4489 133.824 87.4759 134.721C87.5028 135.619 87.4867 136.703 87.411 137.898C87.2341 140.479 86.7715 143.032 86.0318 145.511C85.7075 146.671 85.3462 147.713 85.0263 148.527C84.7064 149.341 84.4014 150.041 84.1857 150.501C84.0563 150.738 83.9485 150.986 83.8636 151.242Z" fill="#FF725E"/>
<path fill-rule="evenodd" clip-rule="evenodd" d="M46.0443 68.8984C39.4353 73.2238 36.4153 78.5797 36.9846 84.9661C37.6202 92.0969 40.6401 97.1155 46.0443 100.022C40.2112 96.6627 37.2947 91.0084 37.2947 83.0592C37.2947 77.9975 40.2112 73.2772 46.0443 68.8984Z" fill="#4F6168"/>
<path d="M182 157.838C182 157.899 141.255 157.95 91.0043 157.95C40.7535 157.95 0 157.899 0 157.838C0 157.778 40.7364 157.727 91.0043 157.727C141.272 157.727 182 157.77 182 157.838Z" fill="#263238"/>
</svg>
