<svg width="112" height="106" viewBox="0 0 112 106" fill="none" xmlns="http://www.w3.org/2000/svg">
<path d="M55.8307 101.476C42.1363 101.476 31.0342 90.4494 31.0342 76.8476C31.0342 63.2458 42.1363 52.2188 55.8307 52.2188C69.5251 52.2188 80.6272 63.2458 80.6272 76.8476C80.6272 90.4494 69.5251 101.476 55.8307 101.476Z" fill="#628CB0"/>
<path d="M42.1047 63.9117C42.1047 60.9223 42.6414 58.0572 43.6237 55.4062C36.1073 59.637 31.0342 67.6526 31.0342 76.8468C31.0342 90.4486 42.1363 101.475 55.8307 101.475C66.5153 101.475 75.6205 94.7631 79.1074 85.3531C75.5038 87.3813 71.3388 88.5406 66.9004 88.5406C53.206 88.5406 42.1047 77.5136 42.1047 63.9117Z" fill="#4C7495"/>
<path d="M46.5049 76.1418C46.5049 73.759 44.0633 71.8281 41.051 71.8281C38.0395 71.8281 35.5979 73.759 35.5979 76.1418C35.5979 78.5237 38.0395 80.4546 41.051 80.4546C44.0633 80.4546 46.5049 78.5237 46.5049 76.1418Z" fill="white"/>
<path d="M76.0635 76.1418C76.0635 73.759 73.6219 71.8281 70.6104 71.8281C67.5981 71.8281 65.1565 73.759 65.1565 76.1418C65.1565 78.5237 67.5981 80.4546 70.6104 80.4546C73.6219 80.4546 76.0635 78.5237 76.0635 76.1418Z" fill="white"/>
<path d="M44.2294 73.467C43.3264 73.467 42.5938 72.7393 42.5938 71.8424V69.9293C42.5938 69.0315 43.3264 68.3047 44.2294 68.3047C45.1324 68.3047 45.8651 69.0315 45.8651 69.9293V71.8424C45.8651 72.7393 45.1324 73.467 44.2294 73.467Z" fill="#495059"/>
<path d="M59.4602 75.125H52.3648C51.4609 75.125 50.7291 74.3973 50.7291 73.5004C50.7291 72.6035 51.4609 71.8758 52.3648 71.8758H59.4602C60.3632 71.8758 61.0958 72.6035 61.0958 73.5004C61.0958 74.3973 60.3632 75.125 59.4602 75.125Z" fill="#495059"/>
<path d="M67.4321 73.467C66.529 73.467 65.7964 72.7393 65.7964 71.8424V69.9293C65.7964 69.0315 66.529 68.3047 67.4321 68.3047C68.3351 68.3047 69.0677 69.0315 69.0677 69.9293V71.8424C69.0677 72.7393 68.3351 73.467 67.4321 73.467Z" fill="#495059"/>
<path d="M107.743 29.176C106.739 29.176 105.736 28.7961 104.971 28.0354C91.823 14.9768 74.3717 7.78541 55.8307 7.78541C37.2898 7.78541 19.8376 14.9768 6.69006 28.0363C5.16003 29.556 2.67842 29.556 1.14839 28.0363C-0.382491 26.5157 -0.382491 24.0518 1.14754 22.5312C15.7765 8.00202 35.1958 0 55.8307 0C76.4648 0 95.8849 8.00202 110.514 22.5312C112.044 24.0509 112.044 26.5157 110.513 28.0363C109.749 28.7961 108.745 29.176 107.743 29.176Z" fill="#6BA3D2"/>
<path d="M1.14752 22.5279C-0.382507 24.0476 -0.382507 26.5124 1.14752 28.033C2.6784 29.5526 5.15916 29.5526 6.69004 28.033C15.7262 19.0579 26.7951 12.8539 38.853 9.85177C34.4657 9.55562 32.3265 5.6938 34.5023 2.95312C22.0295 6.49595 10.5901 13.1501 1.14752 22.5279Z" fill="#4A7DA8"/>
<path d="M15.3812 40.5631C14.3785 40.5631 13.3749 40.1831 12.6099 39.4233C11.0799 37.9028 11.0799 35.4379 12.6099 33.9183C24.172 22.4343 39.5209 16.1094 55.8307 16.1094C72.1396 16.1094 87.4893 22.4343 99.0514 33.9183C100.581 35.4379 100.581 37.9028 99.0514 39.4224C97.5205 40.943 95.0398 40.943 93.5089 39.4224C83.4274 29.4091 70.0465 23.8948 55.8307 23.8948C41.6149 23.8948 28.2339 29.4091 18.1524 39.4233C17.3874 40.1831 16.3839 40.5631 15.3812 40.5631Z" fill="#6697C0"/>
<path d="M12.6099 33.9118C11.0799 35.4315 11.0799 37.8963 12.6099 39.4168C13.3749 40.1767 14.3785 40.5566 15.3812 40.5566C16.3839 40.5566 17.3874 40.1767 18.1524 39.4168C25.2795 32.338 34.0559 27.5107 43.61 25.287C39.33 24.8309 37.3425 20.9209 39.7091 18.2344C29.5646 20.9784 20.2584 26.3151 12.6099 33.9118Z" fill="#4F7BA0"/>
<path d="M84.8178 51.9492C83.8151 51.9492 82.8124 51.5685 82.0466 50.8086C75.032 43.8414 65.7214 40.0042 55.8308 40.0042C45.9401 40.0042 36.6296 43.8414 29.6141 50.8086C28.0841 52.3292 25.6025 52.3292 24.0725 50.8086C22.5416 49.2889 22.5416 46.8241 24.0725 45.3036C32.5677 36.8658 43.8461 32.2188 55.8308 32.2188C67.8154 32.2188 79.0939 36.8658 87.5899 45.3036C89.12 46.8241 89.12 49.2889 87.5899 50.8086C86.8241 51.5685 85.8214 51.9492 84.8178 51.9492Z" fill="#628CB0"/>
<path d="M24.0716 45.3035C22.5416 46.8241 22.5416 49.2889 24.0716 50.8086C25.6025 52.3291 28.0841 52.3291 29.6141 50.8086C34.7912 45.6674 41.218 42.2329 48.2053 40.7843C43.6996 40.5736 41.4812 36.6347 43.7072 33.8594C36.3612 35.8977 29.6218 39.7909 24.0716 45.3035Z" fill="#4C7495"/>
<path d="M110.574 78.6634C112.475 77.508 112.475 74.8022 110.574 73.6469C109.013 72.698 107.301 71.9692 105.483 71.5044C105.015 69.6983 104.281 67.998 103.325 66.4473C102.162 64.5592 99.438 64.5592 98.2748 66.4473C97.319 67.998 96.5857 69.6983 96.1173 71.5047C94.2989 71.9696 92.5871 72.6984 91.0258 73.6473C89.1249 74.8026 89.1249 77.5084 91.0258 78.6638C92.5871 79.613 94.2989 80.3418 96.1173 80.8067C96.5853 82.6127 97.319 84.313 98.2748 85.8638C99.438 87.7518 102.162 87.7518 103.325 85.8638C104.281 84.3126 105.015 82.6123 105.483 80.8063C107.301 80.3414 109.013 79.6126 110.574 78.6634Z" fill="#4C7495"/>
<path d="M100.704 64.9219C99.7647 64.9521 98.8372 65.4236 98.2748 66.3365C97.319 67.8873 96.5857 69.5875 96.1173 71.394C94.2989 71.8589 92.5871 72.5876 91.0258 73.5365C89.1249 74.6919 89.1249 77.3976 91.0258 78.553C92.5871 79.5023 94.2989 80.231 96.1173 80.6959C96.5853 82.5019 97.319 84.2022 98.2748 85.753C98.8383 86.6676 99.7682 87.1392 100.709 87.1677C98.8372 81.0202 98.8372 71.1113 100.704 64.9219Z" fill="#385E7D"/>
<path d="M25.1882 102.026C26.0655 101.493 26.0655 100.244 25.1882 99.7108C24.4675 99.2729 23.6775 98.9365 22.8382 98.722C22.6222 97.8884 22.2836 97.1037 21.8425 96.3879C21.3056 95.5165 20.0483 95.5165 19.5114 96.3879C19.0703 97.1037 18.7318 97.8884 18.5156 98.7221C17.6764 98.9367 16.8863 99.273 16.1657 99.711C15.2884 100.244 15.2884 101.493 16.1657 102.026C16.8863 102.464 17.6764 102.801 18.5156 103.015C18.7316 103.849 19.0703 104.634 19.5114 105.349C20.0483 106.221 21.3056 106.221 21.8425 105.349C22.2836 104.633 22.6222 103.849 22.8382 103.015C23.6775 102.801 24.4675 102.464 25.1882 102.026Z" fill="#385E7D"/>
<path d="M20.6326 95.7344C20.199 95.7483 19.771 95.9659 19.5114 96.3873C19.0703 97.103 18.7318 97.8878 18.5156 98.7215C17.6764 98.9361 16.8863 99.2724 16.1657 99.7104C15.2884 100.244 15.2884 101.492 16.1657 102.026C16.8863 102.464 17.6764 102.8 18.5156 103.015C18.7316 103.848 19.0703 104.633 19.5114 105.349C19.7715 105.771 20.2007 105.989 20.6351 106.002C19.771 103.164 19.771 98.5911 20.6326 95.7344Z" fill="#294D6B"/>
<path d="M13.5206 73.1495C14.6679 72.4522 14.6679 70.8192 13.5206 70.1218C12.5783 69.5491 11.5451 69.1093 10.4476 68.8287C10.1652 67.7387 9.72233 66.7125 9.14549 65.7765C8.44342 64.637 6.79924 64.637 6.09717 65.7765C5.52033 66.7125 5.07774 67.7387 4.79502 68.829C3.69755 69.1095 2.66437 69.5494 1.72203 70.1221C0.574754 70.8194 0.574754 72.4525 1.72203 73.1498C2.66437 73.7227 3.69755 74.1625 4.79502 74.4431C5.07751 75.5332 5.52033 76.5594 6.09717 77.4953C6.79924 78.6349 8.44342 78.6349 9.14549 77.4953C9.72233 76.5591 10.1652 75.5329 10.4476 74.4429C11.5451 74.1623 12.5783 73.7225 13.5206 73.1495Z" fill="#385E7D"/>
<path d="M7.56343 64.9219C6.99642 64.9401 6.43666 65.2247 6.09717 65.7757C5.52033 66.7116 5.07774 67.7378 4.79502 68.8281C3.69755 69.1087 2.66437 69.5485 1.72203 70.1212C0.574754 70.8186 0.574754 72.4516 1.72203 73.1489C2.66437 73.7219 3.69755 74.1617 4.79502 74.4423C5.07751 75.5323 5.52033 76.5585 6.09717 77.4945C6.43729 78.0465 6.99853 78.3311 7.56663 78.3483C6.43666 74.638 6.43666 68.6575 7.56343 64.9219Z" fill="#294D6B"/>
</svg>
