<svg width="16" height="16" viewBox="0 0 16 16" fill="none" xmlns="http://www.w3.org/2000/svg">
<path fill-rule="evenodd" clip-rule="evenodd" d="M3.80231 13.4069H6.80615C7.16661 13.4069 7.40692 13.6472 7.40692 14.0076C7.40692 14.3681 7.16661 14.6084 6.80615 14.6084H3.80231C2.781 14.6084 2 13.8274 2 12.8061V3.19379C2 2.17248 2.781 1.39148 3.80231 1.39148H6.80615C7.16661 1.39148 7.40692 1.63179 7.40692 1.99225C7.40692 2.35271 7.16661 2.59302 6.80615 2.59302H3.80231C3.44185 2.59302 3.20154 2.83333 3.20154 3.19379V12.8061C3.20154 13.1666 3.44185 13.4069 3.80231 13.4069ZM13.9547 7.75963C14.0147 7.93987 14.0147 8.1201 13.9547 8.24025C13.9547 8.30033 13.8946 8.3604 13.8345 8.42048L11.4314 10.8236C11.3113 10.9437 11.131 11.0038 11.0109 11.0038C10.8907 11.0038 10.7105 10.9437 10.5903 10.8236C10.35 10.5833 10.35 10.2228 10.5903 9.98248L11.9721 8.60071H6.20473C5.84427 8.60071 5.60396 8.3604 5.60396 7.99994C5.60396 7.63948 5.84427 7.39917 6.20473 7.39917H11.9721L10.5903 6.0174C10.35 5.7771 10.35 5.41664 10.5903 5.17633C10.8307 4.93602 11.1911 4.93602 11.4314 5.17633L13.8345 7.5794C13.8645 7.60944 13.8796 7.63948 13.8946 7.66952C13.9096 7.69956 13.9246 7.7296 13.9547 7.75963Z" fill="#283044"/>
</svg>
